<?xml version="1.0" encoding="utf-8"?>
<!-- Generator: Adobe Illustrator 16.0.0, SVG Export Plug-In . SVG Version: 6.00 Build 0)  -->
<!DOCTYPE svg PUBLIC "-//W3C//DTD SVG 1.0//EN" "http://www.w3.org/TR/2001/REC-SVG-20010904/DTD/svg10.dtd">
<svg version="1.0" id="Capa_1" xmlns="http://www.w3.org/2000/svg" xmlns:xlink="http://www.w3.org/1999/xlink" x="0px" y="0px"
	 width="300px" height="300px" viewBox="0 0 300 300" enable-background="new 0 0 300 300" xml:space="preserve">
<g>
	<path fill="#FCB120" d="M242.623,0H57.377C25.82,0,0,25.82,0,57.377v185.245C0,274.18,25.82,300,57.377,300h185.246
		C274.18,300,300,274.18,300,242.622V57.377C300,25.82,274.18,0,242.623,0z"/>
	<path fill="#FCB120" d="M167.221,43.218c0-0.002,0-0.002,0-0.002c-0.75-3.33-1.382-6.696-2.621-9.885
		c1.239,3.188,1.871,6.555,2.617,9.885C167.216,43.216,167.219,43.216,167.221,43.218"/>
	<path fill="#FCB120" d="M166.37,42.591c0.007,0.321-0.177,0.711,0.311,0.858c0.075,0.017,0.142,0.017,0.205,0.009
		c-0.062,0.008-0.129,0.008-0.201-0.01C166.192,43.302,166.376,42.912,166.37,42.591"/>
	<path fill="#FCB120" d="M169.636,52.613c-0.666-3.161-1.352-6.315-2.408-9.378c-0.001,0.001-0.002,0.002-0.003,0.004
		C168.284,46.299,168.97,49.453,169.636,52.613"/>
	<path fill="#FCB120" d="M166.674,43.655c-0.087,0.113-0.034,0.303,0.016,0.49c0.044,0.164,0.088,0.327,0.132,0.489
		c-0.043-0.162-0.088-0.325-0.132-0.489C166.64,43.958,166.587,43.769,166.674,43.655"/>
	<path fill="#FCB120" d="M159.563,36.538c0.005,0.136,0,0.274-0.02,0.415c-0.347-1.116-0.697-2.232-1.045-3.35
		c0.348,1.117,0.698,2.233,1.045,3.35l0.275,0.736c-0.092-0.245-0.184-0.49-0.275-0.736
		C159.562,36.812,159.568,36.674,159.563,36.538"/>
	<path fill="#FCB120" d="M159.809,37.897c0.018,0.198,0.117,0.367,0.276,0.514c-0.011,0.068-0.02,0.137-0.026,0.204
		c0.006-0.067,0.015-0.136,0.026-0.204C159.926,38.265,159.827,38.096,159.809,37.897"/>
	<path fill="#FCB120" d="M160.117,39.343c-0.053-0.148-0.073-0.301-0.074-0.457C160.043,39.042,160.064,39.194,160.117,39.343"/>
	<path fill="#FCB120" d="M166.452,60.464c-0.009-1.615-0.265-3.242-0.717-4.88C166.187,57.222,166.442,58.849,166.452,60.464"/>
	<path fill="#FCB120" d="M177.723,71.373c0.069,0.359,0.094,0.72,0.09,1.079C177.817,72.093,177.792,71.732,177.723,71.373"/>
	<path fill="#FCB120" d="M176.165,68.151c-0.417-0.66-0.366-1.402-0.392-2.131C175.799,66.749,175.749,67.491,176.165,68.151
		c0.179,0.839,0.041,1.721,0.058,2.582C176.206,69.872,176.344,68.99,176.165,68.151"/>
	<path fill="#FCB120" d="M178.204,74.777c-0.07-0.329-0.271-0.635-0.534-0.884c0,0,0,0,0,0.001
		C177.933,74.143,178.134,74.448,178.204,74.777"/>
	<g>
		<path fill="#FDFEFB" d="M69.329,239.314l-6.423,16.488h3.532l1.361-3.745h6.591l1.439,3.745h3.622l-6.603-16.488H69.329z
			 M68.822,249.28l2.227-6.119l2.272,6.119H68.822z"/>
		<polygon fill="#FDFEFB" points="81.307,239.449 81.307,255.803 92.915,255.803 92.915,253.024 84.636,253.024 84.636,239.449 		
			"/>
		<rect x="95.187" y="239.314" fill="#FDFEFB" width="3.329" height="16.488"/>
		<polygon fill="#FDFEFB" points="109.618,250.562 106.626,239.314 101.644,239.314 101.644,255.803 104.736,255.803 
			104.736,242.823 107.998,255.803 111.204,255.803 114.477,242.823 114.477,255.803 117.57,255.803 117.57,239.314 
			112.576,239.314 		"/>
		<polygon fill="#FDFEFB" points="124.206,248.538 132.484,248.538 132.484,245.759 124.206,245.759 124.206,242.104 
			133.103,242.104 133.103,239.314 120.876,239.314 120.876,255.803 133.417,255.803 133.417,253.024 124.206,253.024 		"/>
		<polygon fill="#FDFEFB" points="146.263,250.325 139.515,239.314 136.275,239.314 136.275,255.803 139.368,255.803 
			139.368,245.05 146.015,255.803 149.356,255.803 149.356,239.314 146.263,239.314 		"/>
		<polygon fill="#FDFEFB" points="151.696,242.104 156.588,242.104 156.588,255.803 159.917,255.803 159.917,242.104 
			164.799,242.104 164.799,239.314 151.696,239.314 		"/>
		<path fill="#FDFEFB" d="M167.094,255.803l1.361-3.745h6.591l1.439,3.745h3.622l-6.602-16.488h-3.521l-6.422,16.488H167.094z
			 M171.705,243.161l2.272,6.119h-4.499L171.705,243.161z"/>
		<path fill="#FDFEFB" d="M193.183,254.774c1.151-0.875,1.974-2.211,2.468-4.01l-3.228-1.023c-0.277,1.207-0.735,2.092-1.372,2.654
			c-0.638,0.562-1.399,0.844-2.284,0.844c-1.201,0-2.175-0.443-2.924-1.327c-0.75-0.885-1.125-2.37-1.125-4.454
			c0-1.965,0.381-3.387,1.142-4.263c0.761-0.879,1.752-1.317,2.975-1.317c0.885,0,1.637,0.249,2.255,0.742
			c0.619,0.496,1.026,1.17,1.221,2.025l3.296-0.787c-0.375-1.319-0.938-2.332-1.688-3.037c-1.259-1.192-2.898-1.788-4.915-1.788
			c-2.31,0-4.173,0.759-5.59,2.278c-1.417,1.518-2.125,3.648-2.125,6.393c0,2.596,0.705,4.641,2.114,6.137s3.209,2.243,5.399,2.243
			C190.571,256.084,192.031,255.648,193.183,254.774z"/>
		<rect x="198.407" y="239.314" fill="#FDFEFB" width="3.329" height="16.488"/>
		<polygon fill="#FDFEFB" points="211.735,235.006 210.183,238.37 212.185,238.37 215.278,235.006 		"/>
		<path fill="#FDFEFB" d="M212.208,239.033c-1.343,0-2.527,0.217-3.555,0.651c-0.772,0.323-1.483,0.817-2.131,1.485
			c-0.649,0.668-1.161,1.421-1.536,2.262c-0.503,1.14-0.753,2.548-0.753,4.228c0,2.625,0.723,4.686,2.17,6.182
			s3.397,2.243,5.849,2.243c2.422,0,4.356-0.751,5.805-2.255c1.447-1.503,2.17-3.587,2.17-6.248c0-2.685-0.729-4.78-2.187-6.287
			C216.581,239.786,214.637,239.033,212.208,239.033z M215.509,251.805c-0.851,0.956-1.94,1.435-3.267,1.435
			c-1.327,0-2.422-0.482-3.285-1.446c-0.862-0.963-1.293-2.379-1.293-4.246c0-1.896,0.42-3.315,1.26-4.257
			c0.838-0.941,1.946-1.412,3.318-1.412s2.473,0.466,3.301,1.396c0.828,0.931,1.242,2.339,1.242,4.229
			C216.785,249.414,216.361,250.848,215.509,251.805z"/>
		<polygon fill="#FDFEFB" points="232.848,250.325 226.099,239.314 222.859,239.314 222.859,255.803 225.953,255.803 
			225.953,245.05 232.6,255.803 235.94,255.803 235.94,239.314 232.848,239.314 		"/>
		<path fill="#FDFEFB" d="M91.291,266.956l-6.423,16.489h3.532l1.361-3.746h6.591l1.439,3.746h3.622l-6.602-16.489H91.291z
			 M90.784,276.922l2.227-6.118l2.272,6.118H90.784z"/>
		<path fill="#FDFEFB" d="M114.876,268.789c-0.69-0.728-1.518-1.233-2.486-1.518c-0.72-0.21-1.766-0.315-3.138-0.315h-6.085v16.489
			h6.265c1.23,0,2.212-0.116,2.947-0.349c0.982-0.314,1.762-0.754,2.339-1.315c0.765-0.743,1.354-1.714,1.766-2.914
			c0.337-0.982,0.506-2.151,0.506-3.51c0-1.544-0.18-2.843-0.54-3.896C116.091,270.408,115.566,269.517,114.876,268.789z
			 M113.211,278.232c-0.225,0.737-0.516,1.269-0.871,1.592c-0.356,0.321-0.805,0.551-1.345,0.686
			c-0.413,0.104-1.083,0.158-2.013,0.158h-2.486v-10.922h1.496c1.357,0,2.268,0.052,2.733,0.157
			c0.623,0.136,1.136,0.393,1.541,0.775c0.405,0.382,0.72,0.915,0.945,1.598c0.225,0.682,0.337,1.661,0.337,2.936
			S113.437,277.493,113.211,278.232z"/>
		<polygon fill="#FDFEFB" points="123.143,276.18 131.421,276.18 131.421,273.401 123.143,273.401 123.143,269.746 132.041,269.746 
			132.041,266.956 119.814,266.956 119.814,283.445 132.355,283.445 132.355,280.666 123.143,280.666 		"/>
		<path fill="#FDFEFB" d="M144.356,280.037c-0.637,0.562-1.398,0.844-2.283,0.844c-1.2,0-2.174-0.442-2.924-1.327
			c-0.75-0.885-1.125-2.369-1.125-4.453c0-1.966,0.38-3.387,1.142-4.264c0.761-0.877,1.753-1.316,2.975-1.316
			c0.885,0,1.637,0.248,2.255,0.742c0.619,0.495,1.026,1.17,1.221,2.024l3.295-0.787c-0.375-1.319-0.938-2.331-1.687-3.037
			c-1.26-1.191-2.898-1.788-4.916-1.788c-2.31,0-4.173,0.759-5.59,2.278c-1.417,1.519-2.126,3.648-2.126,6.394
			c0,2.596,0.705,4.64,2.114,6.137c1.41,1.495,3.21,2.243,5.399,2.243c1.769,0,3.229-0.437,4.381-1.311
			c1.151-0.874,1.974-2.21,2.469-4.01l-3.228-1.023C145.451,278.591,144.993,279.475,144.356,280.037z"/>
		<path fill="#FDFEFB" d="M161.611,276.077c0,1.306-0.049,2.24-0.146,2.801c-0.098,0.562-0.386,1.037-0.866,1.424
			c-0.48,0.386-1.193,0.578-2.138,0.578c-0.929,0-1.663-0.203-2.199-0.612s-0.876-0.95-1.018-1.625
			c-0.083-0.421-0.124-1.339-0.124-2.757v-8.93h-3.33v8.796c0,1.845,0.109,3.239,0.327,4.184c0.149,0.639,0.461,1.247,0.934,1.827
			c0.472,0.582,1.115,1.055,1.929,1.418c0.813,0.364,2.008,0.546,3.582,0.546c1.305,0,2.362-0.167,3.172-0.501
			c0.81-0.333,1.457-0.781,1.94-1.344s0.815-1.252,0.997-2.07c0.179-0.816,0.269-2.215,0.269-4.194v-8.661h-3.329V276.077z"/>
		<path fill="#FDFEFB" d="M173.196,266.956l-6.422,16.489h3.531l1.361-3.746h6.591l1.439,3.746h3.622l-6.602-16.489H173.196z
			 M172.689,276.922l2.227-6.118l2.272,6.118H172.689z"/>
		<path fill="#FDFEFB" d="M196.782,268.789c-0.689-0.728-1.518-1.233-2.485-1.518c-0.72-0.21-1.766-0.315-3.138-0.315h-6.085v16.489
			h6.265c1.23,0,2.212-0.116,2.947-0.349c0.982-0.314,1.762-0.754,2.339-1.315c0.766-0.743,1.354-1.714,1.766-2.914
			c0.337-0.982,0.506-2.151,0.506-3.51c0-1.544-0.179-2.843-0.54-3.896C197.997,270.408,197.472,269.517,196.782,268.789z
			 M195.118,278.232c-0.225,0.737-0.516,1.269-0.872,1.592c-0.356,0.321-0.805,0.551-1.344,0.686
			c-0.413,0.104-1.083,0.158-2.013,0.158h-2.486v-10.922h1.496c1.357,0,2.268,0.052,2.732,0.157
			c0.623,0.136,1.137,0.393,1.542,0.775c0.405,0.382,0.72,0.915,0.945,1.598c0.225,0.682,0.337,1.661,0.337,2.936
			S195.342,277.493,195.118,278.232z"/>
		<path fill="#FDFEFB" d="M206.466,266.956l-6.422,16.489h3.531l1.361-3.746h6.591l1.439,3.746h3.622l-6.603-16.489H206.466z
			 M205.96,276.922l2.227-6.118l2.272,6.118H205.96z"/>
		<path fill="#FDFEFB" d="M248.205,112.129c-2.323-2.457-4.93-4.602-7.789-6.409c-5.795-3.667-11.958-6.558-18.451-8.783
			c-6.613-2.267-13.361-3.985-20.211-5.345c-0.797-0.159-1.328-0.182-1.334,0.746c-0.018,2.579-0.484,5.13-0.386,7.725
			c0.049,1.296,0.613,1.637,1.723,1.821c2.496,0.412,5,0.823,7.458,1.418c6.29,1.521,12.517,3.229,18.448,5.921
			c4.228,1.917,8.125,4.139,11.389,7.578c3.632,3.829,3.387,8.982-0.139,12.591c-2.658,2.721-5.702,4.776-9.097,6.455
			c-5.834,2.885-11.992,4.807-18.279,6.306c-5.416,1.292-10.903,2.241-16.422,3.076c-4.044,0.61-8.121,0.762-12.16,1.415
			c-4.123,0.668-8.36,0.449-12.538,0.618c-5.377,0.217-10.786,0.308-16.197-0.213c-4.291-0.412-8.626-0.267-12.946-0.768
			c-3.732-0.433-7.495-0.718-11.216-1.24c-5.243-0.735-10.437-1.798-15.576-3.079c-4.62-1.153-9.184-2.506-13.581-4.357
			c-5.347-2.25-10.513-4.757-14.122-9.599c-2.111-2.83-2.275-6.575-0.379-9.429c1.461-2.201,3.3-3.943,5.519-5.348
			c1.149-0.728,1.128-0.992-0.04-1.73c-2.068-1.309-4.163-2.576-6.241-3.869c-0.655-0.407-1.288-0.477-1.927,0.023
			c-2.955,2.309-5.757,4.775-7.872,7.912c-2.294,3.404-3.658,7.046-3.534,11.289c0.114,3.927,0.615,7.781,1.225,11.641
			c0.802,5.073,2.163,10.001,3.813,14.851c1.534,4.509,3.51,8.83,5.422,13.188c2.416,5.507,5.822,10.28,9.845,14.645
			c2.814,3.054,5.99,5.715,9.324,8.224c3.405,2.562,6.925,4.942,10.694,6.866c7.427,3.789,15.203,6.705,23.378,8.497
			c6.075,1.334,12.199,2.545,18.409,2.604c10.587,0.102,21.201,0.563,31.701-1.668c4.244-0.901,8.493-1.762,12.605-3.102
			c4.429-1.442,8.76-3.147,12.953-5.258c4.849-2.438,9.461-5.23,13.729-8.527c4.015-3.102,7.655-6.661,10.942-10.562
			c4.469-5.307,7.292-11.554,10.043-17.801c2.327-5.28,4.199-10.742,5.569-16.386c1.33-5.479,2.438-10.952,2.354-17.39
			C254.998,121.256,252.258,116.418,248.205,112.129z"/>
		<path fill="#FDFEFB" d="M141,90.761c3.834,6.208,7.5,12.527,10.357,19.273c0.352,0.831,0.392,1.531,0.077,2.381
			c-1.079,2.921-1.255,5.979-0.824,9.014c0.586,4.131,2.416,7.811,4.629,11.312c1.472,2.329,3.478,4.17,5.385,6.107
			c0.28,0.284,0.595,0.444,0.995,0.26c0.334-0.154,0.441-0.442,0.463-0.79c0.13-2.064,0.45-4.115,0.329-6.2
			c-0.085-1.446-0.017-2.902-0.017-4.354c0.927,1.047,1.514,2.215,2.19,3.328c0.337,0.556,0.34,1.028,0.267,1.672
			c-0.318,2.756-0.326,5.523,0.358,8.243c0.187,0.741,0.675,1.098,1.504,1.174c1.372,0.125,2.613-0.529,3.977-0.475
			c2.171,0.088,4.348,0.036,6.522,0.027c0.487-0.002,1.085,0.161,1.336-0.453c0.227-0.555-0.163-0.956-0.479-1.361
			c-0.993-1.276-1.932-2.596-3.228-3.606c-0.265-0.205-0.626-0.499-0.319-0.917c0.165-0.225,0.477-0.133,0.624,0.014
			c1.729,1.712,4.721,2.137,5.163,5.187c0.125,0.862,1.019,0.892,1.709,0.707c0.906-0.241,0.593-0.883,0.312-1.438
			c-0.392-0.769-0.238-1.393,0.365-2.001c0.378-0.382,0.831-0.747,0.938-1.336c-0.566,0.315-0.909,0.509-1.14,0.539
			c0.231-0.03,0.573-0.224,1.14-0.539c0.09-0.034,0.133-0.098,0.13-0.194l0,0c0.412-0.172,0.749-0.405,0.899-0.787
			c0.05-0.127,0.081-0.271,0.085-0.435c-0.543,0.193-0.913,0.526-0.973,1.109c0.06-0.583,0.429-0.916,0.973-1.109
			c0,0,0.021-0.011,0.04-0.021l0.04-0.02c0.14,0.012,0.24-0.014,0.181-0.19c-0.039,0.023-0.061,0.063-0.09,0.096
			c0.03-0.032,0.052-0.072,0.09-0.096c0.139-0.261,0.277-0.521,0.416-0.782c0.121-0.699,0.283-1.373,0.995-1.732
			c0.044-0.021,0.076-0.049,0.095-0.083c0.02-0.034,0.026-0.076,0.022-0.125c0.001-0.37,0.14-0.639,0.425-0.8
			c-0.285,0.161-0.424,0.43-0.425,0.8c0.175-0.104,0.331-0.224,0.449-0.37c0.119-0.146,0.2-0.321,0.227-0.535c0,0,0-0.001,0-0.001
			c0.047-0.082,0.095-0.163,0.142-0.244v-0.001c0.131-0.057,0.218-0.134,0.265-0.232c0.022-0.048,0.035-0.102,0.038-0.16
			s-0.006-0.122-0.024-0.19c-0.087,0.06-0.147,0.133-0.192,0.212c0.044-0.079,0.104-0.152,0.191-0.212
			c0.06-0.194,0.118-0.39,0.176-0.586c-0.042-0.139-0.054-0.272-0.053-0.404c-0.001,0.132,0.01,0.266,0.053,0.405
			c0.092-0.158,0.206-0.309,0.273-0.478c1.805-4.51,1.938-9.234,1.777-13.994c-0.009-0.269-0.104-0.548-0.22-0.793
			c-0.497-1.064-0.527-2.244-0.206-3.259c0.711-2.249,0.426-4.567,0.656-6.836c0.527-5.187-0.46-10.395-0.239-15.605
			c0.008-0.184,0.003-0.377-0.048-0.551c-0.794-2.69-0.514-5.482-0.7-8.222c-0.177-2.594-0.898-5.146-0.552-7.793
			c0.098-0.753-0.28-1.57-0.439-2.357c-0.125,0.011-0.25,0.021-0.375,0.032c0.407,5.801-0.1,11.632,0.83,17.417
			c0.007,6.029,0.014,12.058,0.021,18.088c-0.271,1.128,0.042,2.318-0.162,3.452c0.204-1.134-0.11-2.325,0.161-3.452
			c-0.314,0.429-0.459,0.876-0.515,1.332c-0.022,0.184-0.03,0.367-0.03,0.553c0,0.093,0.003,0.186,0.007,0.278
			c0.012,0.278,0.039,0.56,0.062,0.84c0.007,0.093,0.015,0.187,0.021,0.28c0.025,0.372,0.034,0.743-0.017,1.107l0,0
			c-0.136,0.165-0.22,0.341-0.255,0.525c-0.036,0.185-0.023,0.379,0.032,0.582c-0.165,0.555-0.121,1.111-0.021,1.669
			c0.232-0.275,0.331-0.552,0.324-0.83c0.007,0.278-0.091,0.555-0.324,0.831c-0.359,0.401-0.718,0.803-1.078,1.205
			c0,0,0,0.001,0,0.001c-0.312,0.205-0.618,0.418-0.907,0.643c-0.221,0.17-0.428,0.353-0.626,0.541
			c-0.59,0.562-1.076,1.215-1.352,2.055c-0.001,0-0.001,0.001-0.001,0.001c-0.055,0.098-0.109,0.194-0.164,0.292
			c-0.418,0.841-0.836,1.682-1.254,2.522c0.418-0.841,0.836-1.682,1.254-2.522c-0.495,0.442-0.858,0.95-1.144,1.497
			c-0.165,0.313-0.301,0.641-0.425,0.974c-0.11,0.294-0.211,0.592-0.305,0.893c-0.109,0.351-0.213,0.703-0.322,1.053
			c0,0.001,0,0.002-0.001,0.002c-0.051,0.208-0.103,0.414-0.154,0.62c0.094,0.18,0.057,0.316-0.066,0.426
			c0.123-0.109,0.161-0.246,0.066-0.426c-0.089,0.063-0.146,0.137-0.173,0.22c-0.027,0.083-0.023,0.177,0.011,0.278
			c-0.055,0.197-0.111,0.394-0.167,0.59c-0.03,0.311-0.037,0.625-0.037,0.939c0-0.314,0.007-0.629,0.037-0.939
			c-0.209,0.603-0.309,1.22-0.366,1.842c-0.097,1.037-0.079,2.089-0.271,3.115c0.178-0.293,0.307-0.591,0.398-0.894
			c-0.091,0.303-0.22,0.602-0.398,0.894c-0.283,0.466-0.306,0.938-0.028,1.417l0,0c0.036,0.341,0.08,0.683,0.118,1.023
			c0.038,0.341,0.072,0.684,0.086,1.025c0.015,0.336,0.128,0.839-0.354,0.926c-0.488,0.086-0.562-0.42-0.647-0.748
			c-0.555-2.121-1.528-4.059-2.517-5.998c-0.775-1.522-1.46-3.091-2.165-4.647c-0.125-0.275-0.344-0.605-0.076-0.902
			c0.235-0.26,0.522-0.07,0.761,0.043c1.069,0.514,1.116-0.125,1.177-0.942c0.065-0.878-0.438-1.593-0.522-2.422
			c-0.613-6.082-3.839-10.49-8.767-13.878c-1-0.688-2.416-0.715-3.039-2.021c-0.655-1.375-1.446-2.687-2.142-4.043
			c-0.186-0.364-0.723-0.847-0.171-1.179c0.375-0.227,0.69,0.312,0.918,0.659c1.979,3.007,5.069,4.657,7.982,6.516
			c0.898,0.572,1.24,0.09,1.31-0.813c0.064-0.817-0.361-1.517-0.482-2.294c-0.952-6.092-4.223-10.622-9.821-13.074
			c-2.448-1.073-4.399-2.312-5.672-4.62c-0.2-0.362-0.407-0.727-0.652-1.059c-3.662-4.981-6.971-10.204-10.482-15.289
			c-2.034-2.944-4.153-5.824-6.423-8.592c-0.193-0.234-0.403-0.687-0.735-0.472c-0.457,0.294-0.009,0.625,0.15,0.925
			c0.689,1.299,1.727,2.351,2.552,3.559c2.099,3.074,4.221,6.133,6.244,9.26c2.304,3.562,4.587,7.137,6.909,10.687
			c1.237,1.892,2.708,3.64,3.654,5.71c0.392,0.858,1.014,1.736,0.676,2.747c-0.25,0.746-0.107,1.389,0.264,1.98
			c1.506,2.401,2.273,5.18,3.879,7.534c0.375,0.551,1.237,1.436,0.501,1.863c-0.759,0.439-1.067-0.795-1.412-1.357
			c-3.229-5.271-6.818-10.306-10.117-15.534c-3.056-4.845-6.583-9.392-9.905-14.067c-0.186-0.261-0.401-0.631-0.762-0.397
			c-0.434,0.28,0.009,0.578,0.134,0.819c1.405,2.705,3.492,4.949,5.105,7.518c1.518,2.415,3.153,4.754,4.617,7.207
			c2.101,3.522,4.277,7.001,6.459,10.475c1.985,3.157,4.217,6.142,5.455,9.754c0.584,1.705,1.494,3.354,2.522,4.917
			c1.613,2.452,3.511,4.609,5.66,6.585c0.755,0.694,1.43,1.511,1.496,2.896c-2.035-1.419-4.098-2.294-6.204-3.095
			c-0.646-0.246-1.104-0.837-1.443-1.456c-2.75-5.021-5.458-10.064-8.25-15.062c-1.685-3.018-3.471-5.979-5.258-8.939
			c-2.05-3.395-4.143-6.765-6.235-10.135c-0.6-0.967-1.261-1.898-1.895-2.845c-0.118,0.076-0.236,0.152-0.354,0.229
			c1.098,2.955,3.218,5.431,4.169,8.481c-1.705-1.052-2.199-3.144-3.78-4.376c-0.257,0.726,0.274,1.028,0.471,1.464
			c0.866,1.914,2.481,3.293,3.49,5.15c2.046,3.766,4.588,7.245,6.689,11c2.59,4.63,5.525,9.07,8.078,13.72
			c2.041,3.72,3.387,7.776,4.966,11.715c0.231,0.579-0.022,1.091-0.175,1.615c-0.113,0.389-0.156,0.89-0.639,0.989
			c-0.598,0.122-0.739-0.432-0.969-0.814c-2.655-4.435-5.331-8.856-7.956-13.308c-3.26-5.524-6.507-11.056-9.704-16.616
			c-2.901-5.046-6.243-9.806-9.4-14.685c-3.124-4.827-6.72-9.335-9.718-14.253c-0.378-0.619-0.704-1.507-1.911-1.49
			c1.442,2.114,2.534,4.253,3.878,6.202C133.863,79.246,137.442,85,141,90.761z M189.021,111.984
			c0.012-0.731,0.104-1.459,0.396-2.182c0.003-0.007,0.005-0.015,0.008-0.022c-0.002,0.008-0.005,0.016-0.008,0.023
			C189.125,110.525,189.033,111.253,189.021,111.984z M189.726,104.892c0.111-1.648,0.214-3.296,0.206-4.939
			C189.94,101.596,189.836,103.243,189.726,104.892z M185.69,115.321c-0.335,0.344-0.69,0.67-1.037,1.004
			C185,115.991,185.355,115.665,185.69,115.321z M181.744,135.653c0.115,0.424,0.197,0.742,0.278,0.969
			C181.941,136.396,181.859,136.077,181.744,135.653c-0.37-1.353-0.816-2.674-0.837-4.082
			C180.928,132.979,181.375,134.301,181.744,135.653z M181.025,124.618c0.004,0.367,0.017,0.737,0.017,1.104
			C181.042,125.355,181.03,124.985,181.025,124.618z M180.926,130.962L180.926,130.962c0.016-0.205-0.025-0.406-0.117-0.59
			C180.9,130.556,180.942,130.757,180.926,130.962z"/>
		<path fill="#FDFEFB" d="M158.583,140.895c0.158-0.273,0.005-0.531-0.153-0.77c-2.188-3.303-4.211-6.754-7.691-8.938
			c-1.868-1.172-3.598-2.54-5.711-3.354c-2.166-0.835-4.35-1.437-6.629-1.852c-1.442-0.262-2.893-0.46-4.236-0.047
			c-1.487,0.456-2.66,0.18-3.941-0.534c-7.268-4.045-14.221-8.61-21.372-12.847c-4.959-2.938-9.802-6.081-15.032-8.538
			c-1.601-0.752-2.978-1.975-5.095-2.427c0.686,1.036,1.527,1.38,2.294,1.815c2.798,1.594,5.637,3.119,8.378,4.805
			c4.838,2.975,9.683,5.939,14.404,9.103c4.836,3.241,9.764,6.349,14.838,9.203c2.626,1.478,4.506,3.804,6.809,5.646
			c6.605,5.283,14.058,8.126,22.39,8.919C158.116,141.105,158.416,141.183,158.583,140.895z"/>
		<path fill="#FDFEFB" d="M117.973,68.128c2.258,3.155,4.441,6.364,6.68,9.532c3.969,5.617,7.88,11.269,10.947,17.451
			c0.407,0.819,0.573,1.578,0.356,2.517c-0.724,3.14-0.772,6.293,0.155,9.418c1.771,5.963,5.293,10.682,10.23,14.393
			c0.617,0.465,0.848,0.207,1.012-0.469c0.737-3.026,0.509-6.077-0.109-9.041c-0.976-4.673-3.134-8.84-6.042-12.641
			c-1.283-1.678-2.808-3.145-3.928-4.977c-0.895-1.462-1.553-3.043-2.489-4.473c-2.448-3.738-4.857-7.502-7.532-11.087
			c-2.232-2.992-4.429-6.011-6.684-8.986c-2.279-3.009-4.605-5.982-6.92-8.965c-1.054-1.357-2.128-2.698-3.194-4.047
			c-0.342,0.693-0.048,0.999,0.193,1.329C113.092,61.43,115.562,64.759,117.973,68.128z"/>
		<path fill="#FDFEFB" d="M78.929,89.335c1.738,0.92,3.48,1.824,5.179,2.822c4.373,2.568,8.817,5.014,13.112,7.713
			c5.146,3.234,10.219,6.581,15.571,9.483c2.257,1.224,4.555,2.471,6.434,4.244c4.446,4.197,9.522,7.257,15.388,9.001
			c2.749,0.818,5.54,1.345,8.416,1.369c0.53,0.005,1.238,0.056,0.746-0.75c-0.888-1.453-1.757-2.967-2.908-4.197
			c-2.958-3.16-6.315-5.876-10.464-7.298c-3.438-1.179-6.96-2.202-10.671-1.067c-0.522,0.159-1.107,0.132-1.622-0.157
			c-3.056-1.719-6.128-3.408-9.159-5.17c-4.388-2.552-8.733-5.176-13.118-7.732c-2.74-1.598-5.478-3.206-8.292-4.666
			c-2.936-1.524-5.776-3.258-8.99-4.389C78.45,89.046,78.671,89.198,78.929,89.335z"/>
		<path fill="#FDFEFB" d="M101.373,57.726c5.599,6.812,11.257,13.572,16.218,20.891c1.564,2.307,2.229,4.609,1.988,7.34
			c-0.479,5.431,1.968,9.816,5.297,13.787c1.576,1.879,3.529,3.391,5.531,4.816c0.336,0.239,0.629,0.621,1.091,0.394
			c0.472-0.231,0.307-0.721,0.338-1.117c0.22-2.75-0.193-5.456-0.99-8.049c-1.471-4.791-3.969-9.018-7.629-12.505
			c-1.038-0.988-2.063-1.986-2.821-3.222c-2.17-3.539-4.62-6.894-7.233-10.102c-2.78-3.414-5.709-6.719-8.529-10.098
			c-3.005-3.602-6.32-6.933-9.187-10.651c-0.468-0.608-0.967-1.333-1.9-1.619c-0.104,0.569,0.131,0.81,0.335,1.058
			C96.379,51.674,98.883,54.694,101.373,57.726z"/>
		<path fill="#FDFEFB" d="M99.003,94.103c2.246,1.337,4.675,2.34,6.629,4.22c2.605,2.504,5.645,4.543,8.948,5.971
			c4.113,1.776,8.43,3.018,12.99,3.051c0.305,0.002,0.686,0.242,0.894-0.106c0.222-0.374-0.048-0.726-0.271-1.008
			c-1.785-2.264-3.306-4.674-5.798-6.403c-5.096-3.534-10.461-5.603-16.743-4.524c-0.429,0.073-0.83,0.019-1.212-0.176
			c-2.097-1.071-4.23-2.081-6.281-3.235c-4.338-2.444-8.628-4.976-12.947-7.454c-4.641-2.663-9.358-5.183-14.155-7.552
			c-1.157-0.572-2.28-1.275-3.545-1.594l-0.188,0.414c0.808,0.512,1.578,1.099,2.43,1.522c6.082,3.021,11.926,6.465,17.698,10.023
			C91.266,89.602,95.156,91.814,99.003,94.103z"/>
		<path fill="#FDFEFB" d="M180.903,63.456c-0.199,1.314,0.421,2.557,0.408,3.818c-0.024,2.228,0.292,4.433,0.518,6.617
			c0.193,1.88,0.24,3.759,0.374,5.636c0.269,3.756,0.695,7.511,0.717,11.269c0.01,1.804-0.501,3.634-0.391,5.484
			c0.032,0.518-0.303,0.839-0.646,1.167c-2.892,2.77-4.426,6.251-4.807,10.149c-0.383,3.925-0.141,7.851,1.291,11.609
			c0.175,0.461,0.169,1.069,0.842,1.12c0.562,0.042,0.751-0.44,1.016-0.817c2.162-3.087,3.926-6.298,4.524-10.135
			c0.483-3.098,0.401-6.182,0.131-9.23c-0.186-2.089-0.699-4.152-0.677-6.289c0.046-4.521,0.223-9.055-0.403-13.547
			c-0.21-1.511-0.107-3.048-0.439-4.524c-0.606-2.69-0.391-5.483-1.129-8.151c-0.017-1.425-0.656-2.77-0.503-4.223
			c0.027-0.257-0.15-0.59-0.468-0.585C180.882,62.829,180.942,63.199,180.903,63.456z"/>
		<path fill="#FDFEFB" d="M84.406,78.791c2.307,1.343,4.789,2.37,6.836,4.186c1.488,1.32,3.069,2.559,4.823,3.567
			c4.854,2.793,9.999,4.503,15.649,4.491c0.27,0,0.585,0.133,0.773-0.128c0.257-0.355-0.088-0.58-0.257-0.84
			c-1.438-2.217-3.331-4.067-5.385-5.626c-4.557-3.456-9.648-5.346-15.505-4.112c-0.644,0.136-1.179-0.131-1.708-0.42
			c-4.449-2.438-8.88-4.905-13.347-7.308c-4.056-2.184-7.998-4.568-12.128-6.626c-2.229-1.109-4.417-2.307-6.703-3.307
			c-0.446-0.194-0.897-0.507-1.689-0.028c1.976,1.038,3.812,1.882,5.554,2.907c3.444,2.028,7.002,3.861,10.423,5.926
			C75.919,73.993,80.192,76.34,84.406,78.791z"/>
		<path fill="#FDFEFB" d="M77.246,40.827c1.665,1.063,2.711,2.733,4.011,4.121c2.83,3.02,5.711,5.996,8.517,9.04
			c4.339,4.709,8.538,9.52,12.348,14.666c0.341,0.46,0.657,1.016,0.4,1.546c-0.803,1.656-0.065,3.297,0.246,4.801
			c1.36,6.593,6.004,10.695,11.365,14.156c0.5,0.321,1.1,0.225,0.889-0.401c-0.461-1.365-0.062-2.748-0.363-4.114
			c-0.662-3.008-1.736-5.809-3.415-8.401c-1.332-2.059-2.775-4.092-4.623-5.619c-1.658-1.37-3.159-2.801-4.45-4.491
			c-2.518-3.296-5.165-6.498-8.066-9.449c-2.29-2.33-4.604-4.653-6.834-7.027c-2.808-2.99-5.916-5.659-8.717-8.645
			c-0.615-0.654-1.383-1.167-2.324-1.947C76.388,40.111,76.816,40.554,77.246,40.827z"/>
		<path fill="#FDFEFB" d="M64.813,51.082c3.241,2.428,6.504,4.829,9.722,7.292c2.814,2.153,5.48,4.498,8.385,6.547
			c1.162,0.819,2.188,1.923,2.663,3.448c0.795,2.544,2.593,4.437,4.521,6.179c2.559,2.312,5.828,3.094,9.02,4.005
			c0.542,0.154,1.098-0.027,0.942-0.769c-0.331-1.574-0.55-3.186-1.199-4.674c-1.809-4.144-5.152-6.552-9.414-7.383
			c-2.749-0.536-5.149-1.385-7.191-3.288c-2.744-2.558-5.867-4.641-8.885-6.839c-4.248-3.092-8.656-5.964-12.973-8.963
			c-2.826-1.964-5.946-3.452-8.754-5.644c-0.215,0.636-0.155,0.981,0.185,1.117c1.853,0.737,3.104,2.323,4.821,3.31
			C59.516,47.062,62.163,49.097,64.813,51.082z"/>
		<path fill="#FDFEFB" d="M135.268,36.595c1.984,2.932,4.289,5.626,6.164,8.642c1.386,2.226,3.024,4.294,4.481,6.479
			c1.279,1.918,2.917,3.642,3.669,5.859c0.608,1.792,1.66,3.293,2.747,4.767c2.163,2.935,4.887,5.242,8.197,6.827
			c0.429,0.206,0.761,0.882,1.308,0.475c0.567-0.421-0.017-0.913-0.13-1.367c-0.124-0.497-0.359-1.102,0.097-1.424
			c0.525-0.37,0.681,0.459,1.097,0.584v0.001c0.047,0.078,0.095,0.157,0.143,0.236c-0.136,0.664,0.224,1.137,0.782,1.229
			c0.648,0.105,0.711-0.561,0.865-1.022c0.115-0.344,0.214-0.692,0.32-1.039l0,0c0.098-0.041,0.147-0.114,0.146-0.22
			c0.406-0.9,0.709-1.807,0.92-2.719c0.112-0.479,0.196-0.962,0.258-1.444c0.053-0.419,0.089-0.839,0.106-1.26
			c0.01-0.245,0.016-0.489,0.015-0.734c-0.009-1.614-0.265-3.241-0.717-4.879c-0.096,0.463-0.101,0.922-0.067,1.377
			c-0.034-0.455-0.029-0.914,0.066-1.377c0.001-0.001,0.016-0.081,0.016-0.081l-0.069-0.042c-0.767-0.483-0.737-1.19-0.549-1.944
			c-0.319-1.492-1.259-2.799-1.506-4.269c-0.428-2.541-0.821-5.087-1.594-7.544c-1.062-3.378-1.823-6.851-3.229-10.117
			c-0.647-3.689-2.352-7.031-3.47-10.567c-0.106-0.336,0.025-1.091-0.55-0.893c-0.646,0.222-0.074,0.795,0.037,1.178
			c0.863,2.987,1.748,5.969,2.647,8.945c0.338,1.12,0.685,2.237,1.033,3.353c0.348,1.116,0.698,2.231,1.045,3.349c0,0,0,0,0,0.001
			c0.092,0.245,0.184,0.491,0.275,0.736c0.247,0.182,0.297,0.437,0.266,0.722c-0.011,0.067-0.02,0.137-0.026,0.204
			c-0.002,0.012-0.004,0.023-0.005,0.034c-0.006,0.06-0.008,0.12-0.009,0.179c-0.001,0.02-0.003,0.038-0.003,0.058
			c0.001,0.156,0.021,0.309,0.074,0.457c0.035,0.099,0.084,0.194,0.152,0.288c0.306,0.271,0.479,0.578,0.557,0.914
			c-0.077-0.336-0.251-0.644-0.558-0.914c0.064,0.667,0.21,1.31,0.549,1.896c0,0,0,0,0,0.001c0.047,0.208,0.094,0.417,0.141,0.625
			c0.904,1.734,0.933,3.691,1.412,5.533c0.106,0.408,0.165,0.803,0.182,1.189c-0.017-0.387-0.076-0.781-0.182-1.189
			c-0.479-1.842-0.507-3.798-1.412-5.532c0.192,1.506,0.613,2.979,0.822,4.468c0.209,1.48,1.069,2.941,0.123,4.553
			c-1.684,2.869-2.353,5.978-1.652,9.306c0.099,0.474,0.297,1.167-0.229,1.371c-0.594,0.231-0.724-0.527-1.024-0.899
			c-1.84-2.28-3.812-4.5-6.677-5.403c-1.677-0.529-2.83-1.301-3.916-2.726c-3.941-5.176-7.444-10.667-11.464-15.782
			c-1.713-2.18-3.257-4.498-5.253-6.529c-0.271,0.599-0.077,1.061,0.206,1.396C133.137,33.387,134.189,35.001,135.268,36.595z
			 M159.314,35.334c-0.357-1.137-0.707-2.276-1.034-3.423C158.608,33.058,158.957,34.197,159.314,35.334
			c0.125,0.397,0.234,0.794,0.249,1.204C159.548,36.128,159.44,35.731,159.314,35.334z M160.85,61.447
			c-0.107-0.398-0.194-0.796-0.263-1.19C160.656,60.651,160.743,61.048,160.85,61.447c0.114,0.427,0.25,0.847,0.394,1.263
			C161.1,62.294,160.964,61.875,160.85,61.447z M162.547,49.45c-0.035,0.57-0.157,1.13-0.349,1.697
			C162.39,50.58,162.513,50.021,162.547,49.45z M161.05,54.052c-0.404,1.256-0.636,2.543-0.652,3.858
			C160.414,56.595,160.646,55.308,161.05,54.052z"/>
		<path fill="#FDFEFB" d="M155.25,70.559c-0.614-0.142-0.942-0.512-1.269-0.972c-0.96-1.355-1.913-2.715-2.91-4.042
			c-4.562-6.068-8.467-12.605-13.251-18.513c-0.904-1.117-1.625-2.414-3.213-3.431c0.717,1.373,1.245,2.397,1.972,3.35
			c1.673,2.191,3.299,4.424,4.855,6.7c2.552,3.736,5.049,7.509,7.537,11.287c1.826,2.771,4.089,5.282,5.319,8.416
			c2.38,6.065,6.793,10.198,12.383,13.246c0.503,0.274,0.896,0.132,0.767-0.46c-0.473-2.185-0.556-4.456-1.645-6.507
			C163.453,75.223,160.34,71.742,155.25,70.559z"/>
		<path fill="#FDFEFB" d="M184.264,139.42c-0.455,1.341-0.349,1.501,1.097,1.532c2.498,0.053,4.903-0.735,7.386-0.836
			c0.365-0.014,0.632-0.3,0.609-0.645c-0.084-1.255,0.46-2.417,0.41-3.689c-0.103-2.538-0.363-5.147,0.085-7.61
			c0.694-3.803,0.912-7.647,1.395-11.462c0.413-3.265,0.19-6.607,0.361-9.92c0.341-6.592-0.455-13.189-0.235-19.794
			c0.038-1.133-0.133-2.273-0.208-3.411c-0.196,1.229-0.635,2.38-0.665,3.555c-0.166,6.593,0.195,13.187-0.307,19.786
			c-0.255,3.343-0.25,6.725-0.519,10.073c-0.246,3.057-0.654,6.116-1.271,9.116c-0.25,1.208,0.061,2.649-1.285,3.643
			C187.8,132.21,185.59,135.519,184.264,139.42z"/>
		<path fill="#FDFEFB" d="M139.582,20.731c3.583,6.464,6.854,13.087,10.024,19.761c0.626,1.316,1.245,2.626,0.92,4.222
			c-0.186,0.914-0.088,1.912,0.132,2.885c0.824,3.634,2.829,6.426,5.836,8.566c0.641,0.455,0.983,0.312,1.256-0.365
			c1.761-4.374,0.675-9.02-3.09-11.932c-1.969-1.521-3.555-3.146-4.527-5.398c-0.31-0.718-0.574-1.459-0.926-2.155
			c-3.167-6.264-6.567-12.399-10.208-18.4c-0.37-0.609-0.688-1.3-1.472-1.596c0.01,1.099,0.115,1.413,0.708,2.312
			C138.693,19.325,139.179,20.006,139.582,20.731z"/>
		<path fill="#FDFEFB" d="M140.131,140.977c0.346,0.034,0.788,0.129,0.93-0.325c0.146-0.47-0.281-0.609-0.601-0.79
			c-5.18-2.943-10.187-6.171-15.19-9.396c-6.711-4.326-13.521-8.475-20.462-12.424c-1.628-0.926-3.597-1.203-4.944-2.636
			c-0.164-0.175-0.42-0.25-0.612-0.045c-0.198,0.212-0.053,0.419,0.101,0.603c0.304,0.364,0.699,0.594,1.125,0.78
			c2.118,0.93,4.065,2.181,6.031,3.373c9.432,5.725,18.479,12.039,27.652,18.16C135.998,139.503,137.813,140.789,140.131,140.977z"
			/>
		<path fill="#FDFEFB" d="M109.695,130.35c1.505,0.888,3.031,1.739,4.516,2.66c2.68,1.664,5.323,3.387,8.011,5.037
			c0.671,0.413,1.445,0.696,2.727,0.412c-5.538-3.677-10.958-6.776-16.792-9.785C108.467,129.73,109.115,130.008,109.695,130.35z"/>
		<path fill="#FDFEFB" d="M173.799,53.162c0.465,2.978,0.999,5.948,1.381,8.94c0,0-0.001,0-0.001,0.001
			c0.138,0.932,0.274,1.863,0.411,2.795c0.928,0.955,0.618,2.127,0.575,3.252c0.179,0.84,0.04,1.722,0.058,2.583v0.001
			c0.003,0.145,0.011,0.286,0.024,0.429s0.035,0.283,0.063,0.423c0.078,0.374,0.219,0.739,0.464,1.09
			c-0.111,0.555-0.171,1.108,0.044,1.654c0.167-0.28,0.269-0.559,0.271-0.835c-0.002,0.276-0.104,0.556-0.271,0.835
			c-0.059,1.881-0.25,3.763,0.143,5.636c0.167,0.796-0.183,1.477-0.757,1.974c-1.684,1.458-2.399,3.421-2.975,5.469l0,0
			c-0.085,0.128-0.134,0.26-0.149,0.396c-0.015,0.137,0.003,0.276,0.049,0.421c0.203-0.134,0.279-0.284,0.268-0.444
			c0.012,0.16-0.064,0.311-0.268,0.444c-0.307,0.386-0.413,0.801-0.406,1.231c0.004,0.259,0.049,0.523,0.115,0.791
			c-0.605,1.061-0.778,2.128-0.636,3.198c0.085,0.642,0.284,1.286,0.57,1.93c0,0.001,0,0.001,0,0.002
			c-0.057,0.198-0.093,0.396-0.09,0.592c0.002,0.195,0.042,0.392,0.134,0.583c0.864,1.467,1.09,3.166,1.716,4.721
			c0.083,0.204,0.154,0.417,0.241,0.614c-0.087-0.197-0.159-0.409-0.241-0.614c-0.626-1.554-0.852-3.253-1.716-4.721
			c0.343,2.021,1.011,3.945,1.797,5.824c0.252,0.602,0.363,0.735,0.735,0.554c0.124-0.061,0.277-0.155,0.473-0.28c0,0,0,0,0.001,0
			c0.062-0.13,0.124-0.259,0.185-0.388c-0.025-0.304,0.048-0.562,0.342-0.713c0.378-0.34,0.607-0.771,0.805-1.219
			c0.066-0.149,0.128-0.301,0.192-0.452l0,0c0.333-0.296,0.529-0.645,0.654-1.021c0.125-0.378,0.178-0.784,0.222-1.194
			c-0.21,0.237-0.354,0.501-0.463,0.778c0.109-0.277,0.252-0.541,0.462-0.778c0.08-0.183,0.16-0.364,0.24-0.548l0,0
			c0.351-0.345,0.546-0.746,0.67-1.175c0.124-0.428,0.177-0.881,0.239-1.331c-0.359,0.342-0.516,0.759-0.618,1.193
			c0.103-0.435,0.259-0.852,0.618-1.193c0.084-0.13,0.121-0.26,0.123-0.391c0-0.008,0.003-0.016,0.003-0.023
			c-0.002-0.07-0.013-0.139-0.034-0.208c-0.021-0.069-0.051-0.139-0.088-0.208c0.507-1.621,0.714-3.241,0.585-4.861
			c-0.078-0.972-0.274-1.943-0.599-2.915c-0.015,1.188,0.109,2.367,0.188,3.553c-0.079-1.186-0.203-2.365-0.188-3.553
			c0.046-0.094,0.082-0.188,0.105-0.28c0.072-0.279,0.04-0.556-0.136-0.829c-0.584-0.979-0.924-2.022-1.133-3.098
			c0.208,1.075,0.549,2.118,1.134,3.098c-0.842-3.205-1.33-6.448-1.102-9.778c0.008-0.114-0.001-0.227-0.025-0.337
			c-0.07-0.329-0.27-0.635-0.533-0.883v-0.001l0,0c0.076-0.48,0.135-0.961,0.142-1.441c0.004-0.359-0.021-0.72-0.09-1.079
			c-0.022-0.119-0.051-0.239-0.084-0.358l0,0c-0.058-0.775-0.028-1.568-0.193-2.32c-0.138-0.624-0.167-1.27-0.241-1.906
			c-0.036-0.316-0.084-0.633-0.162-0.942c-0.039-0.155-0.085-0.309-0.141-0.46c-0.057-0.151-0.123-0.301-0.201-0.447l0,0
			c0.007-0.24,0.025-0.481,0.015-0.72c-0.011-0.238-0.048-0.474-0.153-0.702c-0.151-0.098-0.26-0.212-0.342-0.335
			c0.083,0.123,0.191,0.237,0.342,0.335c-0.941-6.517-2.425-12.926-3.729-19.375c-0.187,0.841-0.392,1.719-0.147,2.444
			C173.404,48.728,173.458,50.977,173.799,53.162z M179.608,90.92c0.008,0.734-0.356,1.423-0.368,2.135
			C179.252,92.343,179.617,91.654,179.608,90.92z M177.887,76.907c-0.001,0.336-0.004,0.672-0.005,1.008
			C177.882,77.579,177.886,77.243,177.887,76.907z M177.887,76.571c-0.001-0.447-0.011-0.895-0.043-1.341
			C177.876,75.677,177.886,76.124,177.887,76.571z M177.031,68.868c-0.024-0.646,0-1.301-0.14-1.927
			C177.032,67.567,177.007,68.223,177.031,68.868z M175.409,61.479c0.016-0.07,0.036-0.14,0.071-0.203
			C175.444,61.339,175.424,61.408,175.409,61.479z"/>
		<path fill="#FDFEFB" d="M166.37,42.591c0.372,0.024,0.454,0.156,0.441,0.322C166.823,42.746,166.741,42.615,166.37,42.591
			c0.007,0.32-0.177,0.711,0.314,0.857l0,0c0.072,0.018,0.139,0.018,0.201,0.01c0.007-0.001,0.013-0.004,0.02-0.005
			c0.042,0.031,0.095,0.06,0.109,0.099c-0.108,0.198-0.216,0.396-0.324,0.594c0.044,0.164,0.088,0.327,0.133,0.489l0,0
			c0.131,2.395,0.761,4.701,1.31,7.013c1.053,4.436,1.62,8.937,1.999,13.468c0.021,0.248-0.094,0.556-0.246,0.763
			c-1.608,2.193-2.506,4.572-2.896,7.331c-0.637,4.518,0.697,8.426,2.771,12.247c0.308,0.567,0.64,0.702,0.95,0.041
			c0.408-0.871,0.76-1.767,1.137-2.652c0.271-0.319,0.469-0.663,0.614-1.024c0.242-0.603,0.336-1.255,0.374-1.926
			c0.185-0.232,0.29-0.493,0.351-0.763c0.102-0.448,0.082-0.924,0.11-1.341c0.162-2.349,0.623-4.737-0.252-7.056
			c-0.255-0.237-0.399-0.499-0.472-0.776c0.073,0.277,0.217,0.539,0.473,0.775c0.201-0.724-0.052-1.346-0.435-1.938
			c-0.052,0.209-0.084,0.414-0.093,0.614c0.009-0.2,0.041-0.405,0.092-0.614c0.079-0.525-0.075-0.984-0.402-1.393h0
			c0-0.381-0.087-0.732-0.256-1.058c-0.057-0.108-0.123-0.214-0.197-0.316l0,0c-0.173-1.04-0.299-2.088-0.425-3.136
			c-0.21-1.746-0.42-3.493-0.851-5.205c-0.087-0.041-0.149-0.091-0.193-0.148c0.044,0.058,0.106,0.107,0.193,0.147
			c0.056-0.217-0.023-0.382-0.198-0.509c0,0,0-0.001,0-0.001c-0.006-0.575,0.198-1.167-0.137-1.716
			c-0.359-0.502-0.525-1.058-0.636-1.629c0.11,0.571,0.276,1.127,0.636,1.629c-0.074-0.498-0.121-1.001-0.224-1.492
			c-0.095-0.452-0.19-0.905-0.285-1.356c-0.666-3.16-1.352-6.313-2.412-9.374c-0.002-0.006-0.003-0.011-0.005-0.016
			c0-0.003-0.001-0.005-0.002-0.008c-0.747-3.33-1.379-6.696-2.618-9.885c-0.177-0.456-0.367-0.907-0.57-1.354
			c0.249,2.215,0.315,4.46,1.178,6.522C165.762,39.826,165.631,41.328,166.37,42.591z M171.686,66.169
			c-0.104,0.225-0.12,0.421-0.066,0.594C171.566,66.59,171.581,66.394,171.686,66.169z"/>
		<path fill="#FDFEFB" d="M167.229,43.223c-0.003,0-0.005,0-0.008,0.001c0.001,0.005,0.003,0.01,0.004,0.016
			c0-0.002,0.001-0.003,0.002-0.004c0.004-0.006,0.008-0.008,0.011-0.014c0,0-0.013-0.003-0.017-0.005
			c-0.001,0-0.004-0.001-0.004-0.001c0.001,0.003,0.002,0.005,0.002,0.007C167.222,43.223,167.225,43.223,167.229,43.223z
			 M167.235,43.222L167.235,43.222c0,0-0.003-0.001-0.006-0.002C167.232,43.221,167.236,43.222,167.235,43.222z"/>
		<path fill="#FDFEFB" d="M181.221,62.087c0.34-0.683,0.458-1.332,0.025-2.006c-0.101-0.155-0.371-0.188-0.459-0.011
			c-0.33,0.653-0.322,1.3,0.187,1.882C181,61.983,181.05,61.996,181.221,62.087z"/>
		<path fill="#FDFEFB" d="M175.772,66.021c0.026,0.729-0.024,1.471,0.392,2.131c0.043-1.126,0.354-2.298-0.574-3.252
			c0.049,0.132,0.084,0.265,0.11,0.399C175.747,65.536,175.764,65.777,175.772,66.021z"/>
		<path fill="#FDFEFB" d="M165.68,55.462c0.02-0.705-0.038-1.389-0.549-1.943C164.943,54.271,164.914,54.979,165.68,55.462z"/>
		<path fill="#FDFEFB" d="M185.425,134.1c0.138-0.112,0.261-0.233,0.368-0.364c0.323-0.391,0.512-0.857,0.626-1.368
			C185.707,132.727,185.545,133.4,185.425,134.1z"/>
		<path fill="#FDFEFB" d="M159.819,37.689c-0.013,0.072-0.015,0.143-0.009,0.209c0.018,0.197,0.117,0.366,0.275,0.513
			C160.115,38.125,160.065,37.871,159.819,37.689z"/>
		<path fill="#FDFEFB" d="M176.008,102.262c0.061-0.043,0.117-0.09,0.164-0.142c0.14-0.151,0.208-0.337,0.179-0.57
			C176.056,101.7,175.983,101.958,176.008,102.262z"/>
		<path fill="#FDFEFB" d="M166.745,43.598c-0.03,0.017-0.053,0.035-0.071,0.058c-0.087,0.113-0.034,0.303,0.016,0.49
			c0.107-0.198,0.216-0.396,0.323-0.594C166.891,43.55,166.804,43.565,166.745,43.598z"/>
	</g>
</g>
</svg>
