<?xml version="1.0" encoding="utf-8"?>
<!-- Generator: Adobe Illustrator 16.0.0, SVG Export Plug-In . SVG Version: 6.00 Build 0)  -->
<!DOCTYPE svg PUBLIC "-//W3C//DTD SVG 1.0//EN" "http://www.w3.org/TR/2001/REC-SVG-20010904/DTD/svg10.dtd">
<svg version="1.0" id="Capa_1" xmlns="http://www.w3.org/2000/svg" xmlns:xlink="http://www.w3.org/1999/xlink" x="0px" y="0px"
	 width="300px" height="300px" viewBox="0 0 300 300" enable-background="new 0 0 300 300" xml:space="preserve">
<g>
	<path fill="#AB20FB" d="M242.623,300H57.378C25.82,300,0,274.18,0,242.622V57.377C0,25.82,25.82,0,57.378,0h185.245
		C274.181,0,300,25.82,300,57.377v185.245C300,274.18,274.181,300,242.623,300"/>
	<path fill="#AB20FB" d="M218.359,90.923c-2.254-5.326-5.763-9.489-9.694-13.073c-6.833-6.23-14.688-10.968-23.693-13.504
		c-1.705-0.479-2.083-1.406-2.048-3.045c0.103-4.716,0.126-9.438,0.003-14.152c-0.079-3.051-1.337-5.427-5.391-5.371
		c-15.981,0.22-31.967,0.09-47.951,0.091c-4.095,0-5.563,1.459-5.597,5.675c-0.036,4.429-0.156,8.866,0.053,13.285
		c0.106,2.23-0.685,2.973-2.728,3.669c-12.697,4.326-23.447,11.393-30.918,22.834c-0.701,1.073-1.488,2.146-1.547,3.592H218.359z"/>
	<path fill="#AB20FB" d="M242.878,73.671c5.158,0.039,9.638,3.705,10.767,9.157c1.287,6.213,2.332,12.477,3.48,18.719
		c0.233,1.272,0.527,2.503-1.408,2.767c-1.809,0.246-1.783-1.017-1.984-2.133c-1.13-6.248-2.224-12.504-3.377-18.749
		c-0.836-4.521-4.338-6.965-8.825-6.236c-4.214,0.685-6.804,4.208-6.028,8.642c2.617,14.974,5.352,29.928,8.012,44.895
		c0.179,1.008,0.519,1.788,1.377,2.399c11.541,8.198,23.08,16.4,34.581,24.652c1.245,0.894,1.918,0.741,2.771-0.473
		c4.374-6.227,8.788-12.425,13.251-18.586c0.947-1.309,0.864-2.062-0.511-3.005c-4.21-2.885-8.305-5.939-12.501-8.845
		c-1.335-0.925-2.154-2.012-2.645-3.591c-4.07-13.147-8.316-26.24-12.294-39.415c-1.098-3.636-3.112-6.221-6.143-8.356
		c-11.494-8.101-22.896-16.331-34.379-24.447c-3.137-2.216-6.052-4.777-9.596-6.393c-3.704-1.688-7.863-0.561-9.896,2.711
		c-2.088,3.357-1.376,7.977,1.889,10.352c8.176,5.951,16.456,11.761,24.674,17.654c1.081,0.774,1.969,0.914,3.096,0.027
		C238.83,74.124,240.804,73.674,242.878,73.671"/>
	<path fill="#AB20FB" d="M99.622,51.907c-0.251-2.9-1.244-5.271-3.901-6.696c-2.672-1.435-5.263-1.528-7.893,0.179
		C72.479,55.35,57.13,65.312,41.73,75.192c-2.152,1.381-3.51,3.118-4.365,5.496c-4.791,13.307-9.682,26.578-14.479,39.883
		c-0.52,1.44-1.268,2.476-2.572,3.292c-4.163,2.607-8.219,5.387-12.408,7.95c-1.819,1.113-2.373,1.974-0.994,3.999
		c4.064,5.97,7.934,12.074,11.788,18.183c0.947,1.502,1.658,1.949,3.344,0.843c11.596-7.605,23.255-15.113,34.906-22.632
		c1.02-0.658,1.668-1.416,1.948-2.671c3.31-14.837,6.691-29.659,10.02-44.492c0.615-2.739-0.06-5.159-2.203-7.074
		c-4.538-4.055-11.115-1.906-12.569,4.176c-1.477,6.176-2.803,12.388-4.245,18.572c-0.234,1.01-0.108,2.479-2.019,2.038
		c-1.776-0.409-1.68-1.517-1.349-2.844c0.769-3.078,1.51-6.163,2.282-9.241c0.937-3.73,1.258-7.62,2.754-11.202
		c2.697-6.456,10.261-8.764,16.049-4.828c1.297,0.882,2.178,0.722,3.35-0.043c8.308-5.423,16.651-10.791,24.964-16.207
		C98.27,56.867,99.384,54.603,99.622,51.907"/>
	<path fill="#AB20FB" d="M92.898,160.563c0.006,1.717,1.237,2.667,1.902,3.866c4.933,8.896,11.577,16.418,19.145,23.128
		c1.314,1.166,2.659,2.424,4.921,2.412c23.124-0.116,46.251-0.076,69.376-0.059c1.194,0.001,2.094-0.277,3.092-1.088
		c6.158-4.994,11.485-10.707,16.108-17.16c2.523-3.521,4.668-7.198,6.96-11.1H92.898z"/>
	<path fill="#AB20FB" d="M81.857,118.996c-0.09,3.499,0.053,6.318,0.398,9.192c0.864,7.183,2.769,14.055,5.083,20.869
		c0.724,2.131,1.768,2.744,4.036,2.739c41.439-0.086,82.879-0.062,124.319-0.063c0.577,0,1.156-0.002,1.734-0.005
		c0.689-0.003,1.101-0.101,1.436-0.96c3.829-9.786,6.301-19.841,6.295-30.412c-0.001-0.519,0.259-1.291-0.509-1.424
		c-0.344-0.06-0.811,0.388-1.172,0.667c-7.654,5.902-15.275,11.848-22.969,17.697c-1.576,1.197-3.288,1.455-5.136,0.01
		c-5.52-4.317-11.206-8.421-16.708-12.762c-2.221-1.753-3.751-1.82-6.079,0.12c-5.376,4.484-11.11,8.537-16.688,12.779
		c-1.555,1.183-3.126,1.328-4.706,0.133c-5.665-4.286-11.414-8.469-16.915-12.957c-2.032-1.658-3.512-2.101-5.643-0.405
		c-5.043,4.012-10.199,7.879-15.281,11.842c-3.59,2.8-4.828,2.928-8.223,0.481c-1.846-1.329-3.602-2.783-5.42-4.15
		C93.914,128.026,88.105,123.681,81.857,118.996"/>
	<path fill="#AB20FB" d="M153.578,99.692H92.286c-8.026,0-8.025,0-9.769,7.702c-0.216,0.951-0.266,1.583,0.789,2.359
		c8.085,5.95,16.063,12.047,24.083,18.088c1.413,1.064,2.532,0.418,3.758-0.537c5.755-4.483,11.564-8.896,17.361-13.324
		c1.721-1.314,3.552-1.404,5.269-0.106c5.821,4.396,11.646,8.792,17.354,13.332c1.728,1.375,2.92,1.399,4.658,0.017
		c5.709-4.539,11.541-8.924,17.35-13.337c1.621-1.231,3.446-1.297,5.047-0.097c5.837,4.375,11.731,8.689,17.329,13.357
		c1.973,1.646,3.072,1.408,4.831,0.03c6.485-5.082,12.952-10.204,19.653-14.989c3.46-2.471,5.166-4.938,3.521-9.308
		c-0.861-2.285-1.703-3.267-4.314-3.253C197.332,99.742,175.455,99.692,153.578,99.692"/>
	<g>
		<path fill="#FEFEFE" d="M92.325,247.041c0.713-0.321,1.276-0.806,1.692-1.45c0.416-0.646,0.625-1.354,0.625-2.126
			c0-0.713-0.169-1.355-0.507-1.929c-0.337-0.574-0.759-1.033-1.266-1.378c-0.506-0.346-1.079-0.572-1.721-0.681
			c-0.641-0.108-1.614-0.163-2.919-0.163H81.64v16.489h5.612c2.122-0.016,3.461-0.053,4.016-0.113
			c0.885-0.098,1.629-0.357,2.232-0.781s1.081-0.989,1.429-1.699c0.349-0.707,0.522-1.437,0.522-2.188
			c0-0.951-0.27-1.78-0.809-2.485C94.102,247.833,93.33,247.334,92.325,247.041z M84.97,242.059h1.911
			c1.567,0,2.516,0.019,2.846,0.057c0.555,0.067,0.973,0.261,1.254,0.579c0.281,0.319,0.423,0.732,0.423,1.242
			c0,0.533-0.164,0.962-0.49,1.288s-0.774,0.523-1.343,0.591c-0.315,0.038-1.122,0.057-2.419,0.057H84.97V242.059z M91.543,252.267
			c-0.311,0.349-0.714,0.567-1.209,0.657c-0.322,0.067-1.084,0.102-2.283,0.102H84.97v-4.409h2.688c1.515,0,2.499,0.079,2.952,0.235
			c0.454,0.158,0.801,0.409,1.04,0.755c0.24,0.345,0.36,0.764,0.36,1.26C92.01,251.45,91.854,251.917,91.543,252.267z"/>
		<polygon fill="#FEFEFE" points="101.593,248.538 109.871,248.538 109.871,245.759 101.593,245.759 101.593,242.104 
			110.49,242.104 110.49,239.314 98.264,239.314 98.264,255.804 110.805,255.804 110.805,253.025 101.593,253.025 		"/>
		<polygon fill="#FEFEFE" points="116.901,239.314 113.662,239.314 113.662,255.804 116.755,255.804 116.755,245.051 
			123.402,255.804 126.743,255.804 126.743,239.314 123.649,239.314 123.649,250.325 		"/>
		<polygon fill="#FEFEFE" points="142.804,253.025 133.593,253.025 133.593,248.538 141.871,248.538 141.871,245.759 
			133.593,245.759 133.593,242.104 142.49,242.104 142.49,239.314 130.264,239.314 130.264,255.804 142.804,255.804 		"/>
		<polygon fill="#FEFEFE" points="155.863,246.007 148.979,246.007 148.979,242.104 156.954,242.104 156.954,239.314 
			145.65,239.314 145.65,255.804 148.979,255.804 148.979,248.797 155.863,248.797 		"/>
		<rect x="159.598" y="239.314" fill="#FEFEFE" width="3.329" height="16.489"/>
		<path fill="#FEFEFE" d="M177.407,254.774c1.151-0.874,1.975-2.21,2.47-4.01l-3.229-1.023c-0.277,1.207-0.735,2.092-1.372,2.654
			s-1.398,0.844-2.283,0.844c-1.2,0-2.175-0.443-2.925-1.327c-0.749-0.885-1.124-2.37-1.124-4.454c0-1.966,0.38-3.387,1.142-4.263
			c0.761-0.878,1.753-1.316,2.975-1.316c0.885,0,1.637,0.248,2.256,0.742c0.618,0.495,1.024,1.17,1.22,2.024l3.296-0.787
			c-0.376-1.319-0.938-2.332-1.688-3.037c-1.26-1.192-2.898-1.788-4.915-1.788c-2.31,0-4.173,0.759-5.59,2.278
			c-1.418,1.518-2.126,3.648-2.126,6.394c0,2.595,0.704,4.64,2.114,6.136s3.209,2.244,5.399,2.244
			C174.797,256.085,176.257,255.648,177.407,254.774z"/>
		<rect x="182.633" y="239.314" fill="#FEFEFE" width="3.33" height="16.489"/>
		<path fill="#FEFEFE" d="M192.879,239.686c-0.772,0.322-1.483,0.816-2.131,1.485c-0.649,0.667-1.161,1.421-1.535,2.261
			c-0.503,1.14-0.754,2.549-0.754,4.228c0,2.625,0.724,4.686,2.171,6.182c1.446,1.496,3.396,2.244,5.849,2.244
			c2.422,0,4.356-0.752,5.804-2.256c1.447-1.503,2.171-3.586,2.171-6.247c0-2.685-0.729-4.78-2.188-6.288
			c-1.459-1.508-3.402-2.261-5.832-2.261C195.092,239.033,193.906,239.25,192.879,239.686z M199.769,243.273
			c0.828,0.931,1.243,2.34,1.243,4.229c0,1.912-0.427,3.346-1.277,4.302c-0.852,0.956-1.94,1.435-3.268,1.435
			s-2.422-0.482-3.284-1.445c-0.862-0.964-1.294-2.379-1.294-4.246c0-1.897,0.421-3.316,1.261-4.257
			c0.84-0.941,1.945-1.412,3.317-1.412C197.84,241.879,198.939,242.344,199.769,243.273z"/>
		<path fill="#FEFEFE" d="M216.601,255.493c0.96-0.4,1.702-1.014,2.228-1.839c0.524-0.823,0.787-1.709,0.787-2.653
			c0-1.042-0.219-1.919-0.658-2.626c-0.438-0.709-1.046-1.269-1.822-1.677c-0.776-0.409-1.974-0.804-3.594-1.187
			c-1.619-0.383-2.64-0.749-3.06-1.103c-0.329-0.276-0.494-0.61-0.494-1.001c0-0.428,0.176-0.769,0.528-1.023
			c0.547-0.397,1.305-0.596,2.272-0.596c0.937,0,1.64,0.185,2.107,0.557c0.47,0.37,0.775,0.979,0.918,1.827l3.33-0.146
			c-0.054-1.515-0.603-2.727-1.648-3.633c-1.046-0.908-2.604-1.361-4.674-1.361c-1.268,0-2.349,0.191-3.245,0.573
			c-0.896,0.383-1.582,0.939-2.059,1.67c-0.476,0.732-0.714,1.518-0.714,2.356c0,1.306,0.507,2.411,1.519,3.318
			c0.72,0.646,1.972,1.188,3.757,1.631c1.387,0.346,2.275,0.586,2.666,0.72c0.569,0.203,0.968,0.441,1.198,0.715
			c0.228,0.273,0.342,0.605,0.342,0.995c0,0.607-0.271,1.139-0.815,1.592c-0.543,0.453-1.352,0.681-2.423,0.681
			c-1.013,0-1.817-0.255-2.413-0.765c-0.597-0.51-0.992-1.309-1.187-2.396l-3.239,0.314c0.217,1.844,0.884,3.248,2.002,4.212
			c1.117,0.964,2.718,1.445,4.803,1.445C214.445,256.096,215.641,255.896,216.601,255.493z"/>
		<path fill="#FEFEFE" d="M72.018,268.79c-0.69-0.728-1.519-1.233-2.485-1.519c-0.721-0.21-1.766-0.314-3.138-0.314h-6.086v16.488
			h6.266c1.229,0,2.211-0.116,2.946-0.349c0.982-0.314,1.763-0.754,2.34-1.315c0.765-0.743,1.353-1.714,1.767-2.914
			c0.336-0.982,0.506-2.151,0.506-3.509c0-1.545-0.181-2.844-0.541-3.897C73.232,270.408,72.707,269.517,72.018,268.79z
			 M70.354,278.232c-0.226,0.738-0.517,1.269-0.872,1.592c-0.356,0.321-0.805,0.551-1.345,0.686
			c-0.412,0.105-1.083,0.158-2.013,0.158h-2.486v-10.922h1.496c1.357,0,2.269,0.053,2.733,0.157
			c0.622,0.135,1.136,0.394,1.541,0.775c0.405,0.383,0.72,0.915,0.945,1.598c0.225,0.683,0.336,1.661,0.336,2.936
			S70.578,277.493,70.354,278.232z"/>
		<polygon fill="#FEFEFE" points="80.284,276.18 88.562,276.18 88.562,273.401 80.284,273.401 80.284,269.746 89.182,269.746 
			89.182,266.956 76.955,266.956 76.955,283.445 89.496,283.445 89.496,280.667 80.284,280.667 		"/>
		<polygon fill="#FEFEFE" points="102.139,267.092 98.81,267.092 98.81,283.445 110.417,283.445 110.417,280.667 102.139,280.667 		
			"/>
		<path fill="#FEFEFE" d="M117.537,266.957l-6.423,16.488h3.532l1.361-3.745h6.591l1.439,3.745h3.622l-6.603-16.488H117.537z
			 M117.03,276.922l2.228-6.118l2.272,6.118H117.03z"/>
		<path fill="#FEFEFE" d="M144.148,280.038c-0.638,0.562-1.398,0.843-2.283,0.843c-1.199,0-2.174-0.442-2.924-1.327
			s-1.124-2.37-1.124-4.454c0-1.965,0.379-3.386,1.141-4.263c0.761-0.877,1.753-1.316,2.975-1.316c0.886,0,1.637,0.248,2.255,0.742
			c0.619,0.495,1.025,1.17,1.221,2.024l3.296-0.787c-0.376-1.319-0.938-2.331-1.687-3.036c-1.26-1.192-2.898-1.789-4.916-1.789
			c-2.309,0-4.173,0.76-5.59,2.278c-1.417,1.518-2.126,3.649-2.126,6.394c0,2.596,0.704,4.641,2.114,6.137s3.21,2.243,5.399,2.243
			c1.77,0,3.229-0.437,4.381-1.311s1.974-2.21,2.469-4.009l-3.228-1.023C145.244,278.59,144.786,279.475,144.148,280.038z"/>
		<path fill="#FEFEFE" d="M161.403,276.078c0,1.305-0.049,2.239-0.146,2.8c-0.098,0.563-0.387,1.037-0.866,1.424
			c-0.479,0.386-1.192,0.579-2.137,0.579c-0.931,0-1.663-0.204-2.199-0.612c-0.536-0.409-0.876-0.951-1.018-1.626
			c-0.083-0.42-0.124-1.338-0.124-2.756v-8.93h-3.329v8.795c0,1.845,0.108,3.239,0.326,4.184c0.149,0.639,0.461,1.248,0.934,1.828
			c0.473,0.581,1.115,1.054,1.929,1.418c0.813,0.363,2.008,0.545,3.582,0.545c1.305,0,2.362-0.167,3.172-0.5
			c0.81-0.334,1.457-0.782,1.94-1.344c0.483-0.562,0.815-1.253,0.995-2.071c0.181-0.816,0.271-2.215,0.271-4.194v-8.66h-3.329
			V276.078z"/>
		<polygon fill="#FEFEFE" points="171.661,267.092 168.331,267.092 168.331,283.445 179.939,283.445 179.939,280.667 
			171.661,280.667 		"/>
		<polygon fill="#FEFEFE" points="179.422,269.746 184.314,269.746 184.314,283.445 187.644,283.445 187.644,269.746 
			192.525,269.746 192.525,266.956 179.422,266.956 		"/>
		<path fill="#FEFEFE" d="M204.47,276.078c0,1.305-0.049,2.239-0.146,2.8c-0.098,0.563-0.387,1.037-0.866,1.424
			c-0.48,0.386-1.192,0.579-2.138,0.579c-0.93,0-1.662-0.204-2.199-0.612c-0.535-0.409-0.875-0.951-1.018-1.626
			c-0.082-0.42-0.123-1.338-0.123-2.756v-8.93h-3.33v8.795c0,1.845,0.108,3.239,0.327,4.184c0.149,0.639,0.461,1.248,0.934,1.828
			c0.472,0.581,1.115,1.054,1.929,1.418c0.813,0.363,2.008,0.545,3.582,0.545c1.305,0,2.362-0.167,3.172-0.5
			c0.811-0.334,1.457-0.782,1.94-1.344c0.483-0.562,0.815-1.253,0.996-2.071c0.179-0.816,0.27-2.215,0.27-4.194v-8.66h-3.33V276.078
			z"/>
		<path fill="#FEFEFE" d="M222.235,277.552c-0.469-0.502-1.062-0.964-1.782-1.384c1.447-0.21,2.534-0.718,3.262-1.524
			c0.728-0.806,1.091-1.827,1.091-3.064c0-0.975-0.239-1.841-0.72-2.599c-0.479-0.757-1.119-1.283-1.917-1.579
			c-0.799-0.297-2.079-0.445-3.842-0.445h-7.007v16.489h3.329v-6.883h0.675c0.766,0,1.323,0.061,1.676,0.185
			s0.687,0.353,1.001,0.687c0.315,0.334,0.899,1.142,1.755,2.424l2.407,3.588h3.981l-2.013-3.217
			C223.337,278.946,222.704,278.055,222.235,277.552z M217.113,273.93h-2.464v-4.184h2.599c1.35,0,2.159,0.019,2.43,0.056
			c0.54,0.091,0.957,0.307,1.254,0.646c0.296,0.342,0.444,0.79,0.444,1.345c0,0.494-0.112,0.907-0.338,1.236
			c-0.225,0.331-0.536,0.563-0.934,0.698S218.711,273.93,217.113,273.93z"/>
		<path fill="#FEFEFE" d="M232.69,266.957l-6.422,16.488h3.531l1.361-3.745h6.591l1.439,3.745h3.622l-6.603-16.488H232.69z
			 M232.185,276.922l2.228-6.118l2.271,6.118H232.185z"/>
		<path fill="#FEFEFE" d="M90.396,87.331c-0.701,1.073-1.488,2.146-1.547,3.592h129.511c-2.254-5.326-5.763-9.489-9.694-13.073
			c-6.833-6.23-14.688-10.968-23.693-13.504c-1.705-0.479-2.083-1.406-2.048-3.045c0.103-4.716,0.126-9.438,0.003-14.152
			c-0.079-3.051-1.337-5.427-5.391-5.371c-15.981,0.22-31.967,0.09-47.951,0.091c-4.095,0-5.563,1.459-5.597,5.675
			c-0.036,4.429-0.156,8.866,0.053,13.285c0.106,2.23-0.685,2.973-2.728,3.669C108.616,68.823,97.866,75.89,90.396,87.331z"/>
		<path fill="#FEFEFE" d="M294.982,135.72c-4.21-2.885-8.305-5.939-12.501-8.845c-1.335-0.925-2.154-2.012-2.645-3.591
			c-4.07-13.147-8.316-26.24-12.294-39.415c-1.098-3.636-3.112-6.221-6.143-8.356c-11.494-8.101-22.896-16.331-34.379-24.447
			c-3.137-2.216-6.052-4.777-9.596-6.393c-3.704-1.688-7.863-0.561-9.896,2.711c-2.088,3.357-1.376,7.977,1.889,10.352
			c8.176,5.951,16.456,11.761,24.674,17.654c1.081,0.774,1.969,0.914,3.096,0.027c1.642-1.293,3.615-1.743,5.689-1.746
			c5.158,0.039,9.638,3.705,10.767,9.157c1.287,6.213,2.332,12.477,3.48,18.719c0.233,1.272,0.527,2.503-1.408,2.767
			c-1.809,0.246-1.783-1.017-1.984-2.133c-1.13-6.248-2.224-12.504-3.377-18.749c-0.836-4.521-4.338-6.965-8.825-6.236
			c-4.214,0.685-6.804,4.208-6.028,8.642c2.617,14.974,5.352,29.928,8.012,44.895c0.179,1.008,0.519,1.788,1.377,2.399
			c11.541,8.198,23.08,16.4,34.581,24.652c1.245,0.894,1.918,0.741,2.771-0.473c4.374-6.227,8.788-12.425,13.251-18.586
			C296.44,137.416,296.357,136.662,294.982,135.72z"/>
		<path fill="#FEFEFE" d="M66.715,77.969c-4.538-4.055-11.115-1.906-12.569,4.176c-1.477,6.176-2.803,12.388-4.245,18.572
			c-0.234,1.01-0.108,2.479-2.019,2.038c-1.776-0.409-1.68-1.517-1.349-2.844c0.769-3.078,1.51-6.163,2.282-9.241
			c0.937-3.73,1.258-7.62,2.754-11.202c2.697-6.456,10.261-8.764,16.049-4.828c1.297,0.882,2.178,0.722,3.35-0.043
			c8.308-5.423,16.651-10.791,24.964-16.207c2.338-1.522,3.452-3.787,3.69-6.482c-0.251-2.9-1.244-5.271-3.901-6.696
			c-2.672-1.435-5.263-1.528-7.893,0.179C72.479,55.35,57.13,65.312,41.73,75.192c-2.152,1.381-3.51,3.118-4.365,5.496
			c-4.791,13.307-9.682,26.578-14.479,39.883c-0.52,1.44-1.268,2.476-2.572,3.292c-4.163,2.607-8.219,5.387-12.408,7.95
			c-1.819,1.113-2.373,1.974-0.994,3.999c4.064,5.97,7.934,12.074,11.788,18.183c0.947,1.502,1.658,1.949,3.344,0.843
			c11.596-7.605,23.255-15.113,34.906-22.632c1.02-0.658,1.668-1.416,1.948-2.671c3.31-14.837,6.691-29.659,10.02-44.492
			C69.533,82.304,68.858,79.884,66.715,77.969z"/>
		<path fill="#FEFEFE" d="M214.402,160.563H92.898c0.006,1.717,1.237,2.667,1.902,3.866c4.933,8.896,11.577,16.418,19.145,23.128
			c1.314,1.166,2.659,2.424,4.921,2.412c23.124-0.116,46.251-0.076,69.376-0.059c1.194,0.001,2.094-0.277,3.092-1.088
			c6.158-4.994,11.485-10.707,16.108-17.16C209.966,168.142,212.11,164.465,214.402,160.563z"/>
		<path fill="#FEFEFE" d="M217.429,151.729c0.689-0.003,1.101-0.101,1.436-0.96c3.829-9.786,6.301-19.841,6.295-30.412
			c-0.001-0.519,0.259-1.291-0.509-1.424c-0.344-0.06-0.811,0.388-1.172,0.667c-7.654,5.902-15.275,11.848-22.969,17.697
			c-1.576,1.197-3.288,1.455-5.136,0.01c-5.52-4.317-11.206-8.421-16.708-12.762c-2.221-1.753-3.751-1.82-6.079,0.12
			c-5.376,4.484-11.11,8.537-16.688,12.779c-1.555,1.183-3.126,1.328-4.706,0.133c-5.665-4.286-11.414-8.469-16.915-12.957
			c-2.032-1.658-3.512-2.101-5.643-0.405c-5.043,4.012-10.199,7.879-15.281,11.842c-3.59,2.8-4.828,2.928-8.223,0.481
			c-1.846-1.329-3.602-2.783-5.42-4.15c-5.797-4.361-11.605-8.707-17.854-13.392c-0.09,3.499,0.053,6.318,0.398,9.192
			c0.864,7.183,2.769,14.055,5.083,20.869c0.724,2.131,1.768,2.744,4.036,2.739c41.439-0.086,82.879-0.062,124.319-0.063
			C216.271,151.733,216.851,151.731,217.429,151.729z"/>
		<path fill="#FEFEFE" d="M219.207,99.627c-21.875,0.115-43.752,0.065-65.629,0.065c-20.431,0-40.86,0-61.292,0
			c-8.026,0-8.025,0.001-9.769,7.702c-0.216,0.951-0.266,1.583,0.789,2.359c8.085,5.95,16.063,12.047,24.083,18.088
			c1.413,1.064,2.532,0.418,3.758-0.537c5.755-4.483,11.564-8.896,17.361-13.324c1.721-1.314,3.552-1.404,5.269-0.106
			c5.821,4.396,11.646,8.792,17.354,13.332c1.728,1.375,2.92,1.399,4.658,0.017c5.709-4.539,11.541-8.924,17.35-13.337
			c1.621-1.231,3.446-1.297,5.047-0.097c5.837,4.375,11.731,8.689,17.329,13.357c1.973,1.646,3.072,1.408,4.831,0.03
			c6.485-5.082,12.952-10.204,19.653-14.989c3.46-2.471,5.166-4.938,3.521-9.308C222.66,100.595,221.818,99.613,219.207,99.627z"/>
	</g>
</g>
</svg>
