<?xml version="1.0" encoding="utf-8"?>
<!-- Generator: Adobe Illustrator 16.0.0, SVG Export Plug-In . SVG Version: 6.00 Build 0)  -->
<!DOCTYPE svg PUBLIC "-//W3C//DTD SVG 1.0//EN" "http://www.w3.org/TR/2001/REC-SVG-20010904/DTD/svg10.dtd">
<svg version="1.0" id="Capa_1" xmlns="http://www.w3.org/2000/svg" xmlns:xlink="http://www.w3.org/1999/xlink" x="0px" y="0px"
	 width="300px" height="300px" viewBox="0 0 300 300" enable-background="new 0 0 300 300" xml:space="preserve">
<g>
	<path fill="#F47520" d="M242.623,300H57.378C25.82,300,0,274.18,0,242.622V57.377C0,25.82,25.82,0,57.378,0h185.245
		C274.181,0,300,25.82,300,57.377v185.245C300,274.18,274.181,300,242.623,300"/>
	<g>
		<path fill="#FFFFFF" d="M269.216,161.479c-5.798-8.505-12.153-16.626-18.094-25.037c-2.704-3.829-5.634-7.454-7.97-11.637
			c-3.149-5.641-7.543-10.636-11.765-15.599c-1.514-1.779-3.936-3.155-6.205-3.821c-2.602-0.764-5.495-0.729-8.258-0.699
			c-8.646,0.094-17.29,0.452-25.938,0.501c-4.98,0.028-9.971-0.593-14.946-0.478c-6.781,0.158-13.572,0.683-18.398,6.261
			c-2.296-1.427-4.32-2.852-6.491-4.001c-4.478-2.371-9.449-2.191-14.29-2.262c-4.883-0.07-9.771,0.451-14.659,0.479
			c-3.536,0.02-7.072-0.456-10.612-0.512c-5.877-0.093-11.758,0.055-17.635-0.047c-5.957-0.103-10.144,2.654-13.103,7.625
			c-0.919,1.542-1.794,3.123-2.853,4.566c-8.378,11.44-16.824,22.831-25.187,34.281c-3.458,4.735-6.568,9.737-10.205,14.325
			c-2.948,3.719-4.241,7.701-2.358,11.959c2.207,4.99,6.054,8.528,11.982,8.042c2.846-0.234,5.657-1.324,8.401-2.267
			c5.225-1.797,10.407-3.721,15.573-5.68c3.05-1.155,3.797-0.735,3.807,2.52c0.017,6.168,0.025,12.336-0.008,18.504
			c-0.01,1.923,0.078,3.078,2.768,3.045c11.216-0.138,22.437,0.088,33.654,0.121c0.69,0.002,1.382-0.496,2.77-1.03
			c-4.912-2.163-9.118-3.896-13.199-5.886c-1.223-0.596-2.962-1.884-2.989-2.896c-0.197-7.117-0.102-14.249,0.15-21.367
			c0.04-1.147,1.068-2.821,2.076-3.269c2.94-1.305,6.11-2.084,9.173-3.121c4.514-1.528,9.139-2.816,13.491-4.718
			c7.854-3.432,9.838-9.529,7.146-16.944c-1.987-5.475-9.15-10.607-16.133-7.33c-3.938,1.849-8.294,2.79-12.379,4.356
			c-2.314,0.887-2.929,0.207-2.914-2.063c0.057-8.577,0.02-17.154,0.038-25.731c0.002-0.531,0.201-1.062,0.359-1.846
			c3.177,0.918,6.195,1.689,9.147,2.663c12.741,4.202,25.444,8.516,38.206,12.656c2.306,0.747,5.049,1.713,7.188,1.12
			c7.017-1.943,13.853-4.54,20.747-6.918c8.815-3.039,17.608-6.144,26.435-9.151c3.148-1.072,3.8-0.559,3.804,2.646
			c0.01,7.806,0.01,15.612,0,23.419c-0.004,3.321-0.604,3.626-3.743,2.483c-4.466-1.624-8.894-3.658-13.521-4.453
			c-6.353-1.091-12.368,3.975-13.835,10.676c-1.321,6.044,2.151,12.327,8.143,14.492c6.611,2.39,13.231,4.771,19.92,6.932
			c2.295,0.741,3.217,1.742,3.102,4.241c-0.217,4.713-0.062,9.441-0.062,14.164c0,7.839-0.027,7.771-7.472,10.715
			c-3.666,1.45-7.211,3.208-10.811,4.826c0.993,0.867,2.013,1.336,3.035,1.34c12.432,0.051,24.864-0.002,37.295,0.064
			c2.238,0.012,2.782-0.981,2.759-2.993c-0.073-6.457-0.026-12.914-0.026-19.371c0-0.916,0-1.832,0-3.434
			c1.164,0.688,1.539,0.997,1.971,1.151c7.795,2.776,15.544,5.699,23.413,8.246c6.744,2.185,14.782-4.287,15.186-11.411
			C275.197,168.591,271.758,165.21,269.216,161.479z"/>
		<path fill="#FFFFFF" d="M158.872,93.29c5.295,2.042,10.612,1.713,16.001,0.293c1.11-0.292,2.657-0.166,3.613,0.412
			c3.602,2.176,7.172,4.154,11.456,4.852c6.428,1.043,12.232-0.017,17.674-3.649c1.76-1.175,3.352-2.919,6.163-1.849
			c4.999,1.902,10.156,2.021,16.091-0.535c-2.12-1.304-3.736-2.034-5.03-3.142c-4.341-3.717-6.268-8.76-6.022-14.233
			c0.358-7.986-2.328-14.4-8.221-19.6c-7.25-6.396-15.598-7.773-24.571-4.731c-11.039,3.741-16.334,12.901-16.791,24.597
			c-0.189,4.853-1.688,9.546-5.718,12.842c-1.694,1.386-3.601,2.512-5.441,3.776C158.505,92.858,158.64,93.2,158.872,93.29z"/>
		<path fill="#FFFFFF" d="M120.091,99.353c13.248,0.014,25.341-11.006,24.606-25.09c0.919-13.397-11.292-24.191-23.924-24.676
			c-13.771-0.528-24.887,12.107-25.295,23.029C94.865,89.062,107.331,99.34,120.091,99.353z"/>
		<polygon fill="#FFFFFF" points="85.259,248.538 93.537,248.538 93.537,245.759 85.259,245.759 85.259,242.104 94.156,242.104 
			94.156,239.314 81.93,239.314 81.93,255.804 94.471,255.804 94.471,253.025 85.259,253.025 		"/>
		<path fill="#FFFFFF" d="M108.991,241.147c-0.69-0.727-1.519-1.233-2.485-1.519c-0.721-0.21-1.766-0.314-3.138-0.314h-6.086v16.488
			h6.266c1.23,0,2.212-0.116,2.947-0.348c0.981-0.315,1.761-0.755,2.339-1.315c0.765-0.743,1.354-1.714,1.767-2.915
			c0.337-0.981,0.506-2.15,0.506-3.508c0-1.545-0.181-2.844-0.541-3.897C110.207,242.766,109.682,241.875,108.991,241.147z
			 M107.327,250.59c-0.225,0.738-0.516,1.269-0.872,1.592c-0.356,0.322-0.804,0.552-1.345,0.686
			c-0.412,0.105-1.083,0.158-2.013,0.158h-2.485v-10.921h1.495c1.357,0,2.269,0.052,2.733,0.156
			c0.623,0.136,1.137,0.395,1.541,0.776s0.721,0.915,0.945,1.598s0.337,1.661,0.337,2.936S107.552,249.852,107.327,250.59z"/>
		<path fill="#FFFFFF" d="M123.726,248.436c0,1.306-0.048,2.239-0.146,2.801c-0.098,0.563-0.387,1.037-0.866,1.423
			c-0.48,0.387-1.192,0.579-2.137,0.579c-0.931,0-1.663-0.203-2.199-0.612c-0.536-0.408-0.876-0.95-1.018-1.625
			c-0.083-0.42-0.125-1.339-0.125-2.756v-8.931h-3.328v8.796c0,1.844,0.108,3.239,0.325,4.184c0.15,0.638,0.461,1.247,0.934,1.828
			s1.116,1.054,1.93,1.417c0.813,0.364,2.007,0.546,3.582,0.546c1.305,0,2.361-0.167,3.172-0.5c0.81-0.334,1.457-0.782,1.94-1.345
			s0.815-1.252,0.995-2.07c0.181-0.817,0.271-2.216,0.271-4.194v-8.661h-3.33V248.436z"/>
		<path fill="#FFFFFF" d="M139.742,252.396c-0.638,0.562-1.398,0.844-2.283,0.844c-1.199,0-2.175-0.443-2.924-1.327
			c-0.75-0.885-1.124-2.37-1.124-4.454c0-1.966,0.379-3.387,1.141-4.263c0.761-0.878,1.753-1.316,2.975-1.316
			c0.886,0,1.637,0.248,2.255,0.742c0.619,0.495,1.025,1.17,1.221,2.024l3.296-0.787c-0.376-1.319-0.938-2.332-1.688-3.037
			c-1.259-1.192-2.897-1.788-4.915-1.788c-2.31,0-4.173,0.759-5.59,2.278c-1.417,1.518-2.126,3.648-2.126,6.394
			c0,2.595,0.704,4.64,2.114,6.136s3.21,2.244,5.399,2.244c1.77,0,3.229-0.437,4.381-1.311s1.974-2.21,2.469-4.01l-3.229-1.023
			C140.837,250.948,140.38,251.833,139.742,252.396z"/>
		<path fill="#FFFFFF" d="M151.947,239.314l-6.423,16.488h3.531l1.361-3.745h6.592l1.439,3.745h3.621l-6.603-16.488H151.947z
			 M151.44,249.28l2.228-6.119l2.271,6.119H151.44z"/>
		<path fill="#FFFFFF" d="M173.014,252.396c-0.638,0.562-1.398,0.844-2.283,0.844c-1.2,0-2.175-0.443-2.925-1.327
			c-0.749-0.885-1.124-2.37-1.124-4.454c0-1.966,0.38-3.387,1.141-4.263c0.762-0.878,1.753-1.316,2.976-1.316
			c0.885,0,1.637,0.248,2.255,0.742c0.618,0.495,1.025,1.17,1.221,2.024l3.295-0.787c-0.375-1.319-0.938-2.332-1.687-3.037
			c-1.26-1.192-2.898-1.788-4.915-1.788c-2.31,0-4.173,0.759-5.59,2.278c-1.418,1.518-2.126,3.648-2.126,6.394
			c0,2.595,0.704,4.64,2.114,6.136s3.209,2.244,5.398,2.244c1.77,0,3.23-0.437,4.381-1.311c1.151-0.874,1.975-2.21,2.47-4.01
			l-3.229-1.023C174.109,250.948,173.65,251.833,173.014,252.396z"/>
		<rect x="180.369" y="239.314" fill="#FFFFFF" width="3.33" height="16.489"/>
		<polygon fill="#FFFFFF" points="193.698,235.007 192.146,238.37 194.148,238.37 197.241,235.007 		"/>
		<path fill="#FFFFFF" d="M194.17,239.033c-1.342,0-2.526,0.217-3.555,0.652c-0.771,0.322-1.482,0.816-2.131,1.485
			c-0.648,0.667-1.16,1.421-1.535,2.261c-0.502,1.14-0.754,2.549-0.754,4.228c0,2.626,0.724,4.686,2.171,6.182
			s3.396,2.244,5.85,2.244c2.421,0,4.356-0.752,5.803-2.256c1.448-1.503,2.171-3.586,2.171-6.247c0-2.686-0.729-4.781-2.187-6.288
			C198.544,239.786,196.6,239.033,194.17,239.033z M197.472,251.805c-0.852,0.956-1.94,1.435-3.268,1.435s-2.422-0.482-3.284-1.445
			c-0.862-0.964-1.294-2.379-1.294-4.247c0-1.896,0.42-3.315,1.26-4.256c0.84-0.941,1.946-1.412,3.318-1.412
			s2.473,0.465,3.301,1.395c0.829,0.931,1.243,2.34,1.243,4.229C198.748,249.415,198.322,250.849,197.472,251.805z"/>
		<polygon fill="#FFFFFF" points="214.81,250.325 208.062,239.314 204.821,239.314 204.821,255.804 207.915,255.804 
			207.915,245.051 214.562,255.804 217.903,255.804 217.903,239.314 214.81,239.314 		"/>
	</g>
</g>
</svg>
