<?xml version="1.0" encoding="utf-8"?>
<!-- Generator: Adobe Illustrator 16.0.0, SVG Export Plug-In . SVG Version: 6.00 Build 0)  -->
<!DOCTYPE svg PUBLIC "-//W3C//DTD SVG 1.0//EN" "http://www.w3.org/TR/2001/REC-SVG-20010904/DTD/svg10.dtd">
<svg version="1.0" id="Capa_1" xmlns="http://www.w3.org/2000/svg" xmlns:xlink="http://www.w3.org/1999/xlink" x="0px" y="0px"
	 width="300px" height="300px" viewBox="0 0 300 300" enable-background="new 0 0 300 300" xml:space="preserve">
<g>
	<path fill="#3CF424" d="M242.623,0H57.377C25.82,0,0,25.82,0,57.377v185.246C0,274.18,25.82,300,57.377,300h185.246
		C274.18,300,300,274.18,300,242.623V57.377C300,25.82,274.18,0,242.623,0z"/>
	<g>
		<polygon fill="#FFFFFF" points="59.279,250.562 56.288,239.314 51.304,239.314 51.304,255.804 54.397,255.804 54.397,242.824 
			57.659,255.804 60.865,255.804 64.138,242.824 64.138,255.804 67.231,255.804 67.231,239.314 62.237,239.314 		"/>
		<polygon fill="#FFFFFF" points="73.867,248.538 82.146,248.538 82.146,245.76 73.867,245.76 73.867,242.104 82.764,242.104 
			82.764,239.314 70.538,239.314 70.538,255.804 83.079,255.804 83.079,253.024 73.867,253.024 		"/>
		<polygon fill="#FFFFFF" points="222.078,242.104 226.971,242.104 226.971,255.804 230.3,255.804 230.3,242.104 235.182,242.104 
			235.182,239.314 222.078,239.314 		"/>
		<polygon fill="#FFFFFF" points="240.659,253.024 240.659,248.538 248.937,248.538 248.937,245.76 240.659,245.76 240.659,242.104 
			249.556,242.104 249.556,239.314 237.33,239.314 237.33,255.804 249.871,255.804 249.871,253.024 		"/>
		<path fill="#FFFFFF" d="M228.317,54.571c-2.191-0.934-3.687-1.639-5.231-2.218c-6.147-2.306-12.293-2.229-18.453,0.023
			c-3.056,1.119-5.277,3.296-7.776,5.265c-4.602,3.626-6.633,8.594-8.992,13.55c-0.879,1.849-2.133,4.025-3.813,4.89
			c-4.741,2.438-8.383,6.171-11.048,10.356c-4.313,6.774-8.017,14.02-9.433,22.14c-0.294,1.689-0.863,3.331-1.306,4.994
			c-3.431-8.992-6.57-17.811-11.667-25.79c-0.38-0.596-0.081-2.146,0.464-2.707c1.224-1.257,2.917-2.042,4.214-3.243
			c4.937-4.571,7.371-10.397,8.276-16.969c1.124-8.152-4.439-14.747-5.054-22.758c-5.829,2.709-10.761,5.927-14.802,10.903
			c-4.233,5.214-3.389,11.34-3.995,17.784c-5.542-7.149-11.196-12.824-18.131-17.099c-1.974-1.218-3.339-2.525-3.783-5.015
			c-0.938-5.263-3.798-9.872-7.653-13.192c-4.857-4.184-10.927-5.987-17.553-4.311c-1.284,0.325-2.81,0.12-3.893,0.738
			c-2.454,1.4,0.422,2.231,0.702,3.308c0.889,3.425,1.587,7.149,3.485,10.012c5.021,7.574,12,12.096,21.592,11.377
			c0.656-0.05,1.686,0.308,1.988,0.809c4.032,6.692,8.29,13.279,11.822,20.232c3.02,5.943,5.194,12.318,7.7,18.519
			c0.268,0.663,0.249,1.44,0.362,2.165c-6.216-7.9-13.405-13.58-23.711-13.253c-6.181,0.197-11.743,2.718-16.616,6.221
			c2.21,2.479,4.102,4.592,5.985,6.712c3.73,4.199,6.879,8.841,12.746,10.808c5.86,1.964,11.5,2.163,17.333,0.527
			c2.05-0.574,4.099-1.155,6.194-1.745c0.16,0.242,0.399,0.455,0.452,0.709c0.841,3.983,1.765,7.954,2.451,11.966
			c0.846,4.955,1.666,9.928,2.175,14.926c0.591,5.8,0.764,11.642,1.273,17.451c0.135,1.528,0.841,3.006,1.579,5.499
			c-1.75-1.612-2.998-2.665-4.134-3.826c-3.631-3.71-7.852-6.469-12.817-8.027c-4.07-1.277-8.155-2.501-12.268-3.76
			c-0.321,5.036-2.501,10.318-0.368,16.196c2.314,6.372,5.663,11.473,11.634,14.702c4.248,2.297,8.394,4.811,13.56,4.636
			c2.05-0.069,2.134,1.768,1.965,3.376c-0.506,4.831-0.985,9.664-1.55,14.488c-0.464,3.97-0.716,8.006-1.655,11.867
			c-0.902,3.71-1.094,3.82,2.828,3.873c9.373,0.126,18.745,0.306,28.117,0.293c0.611-0.001,1.799-1.493,1.739-2.211
			c-0.411-4.933-1.143-9.839-1.656-14.765c-0.989-9.479-1.901-18.967-2.848-28.449c-0.094-0.944-0.201-1.887-0.31-2.83
			c-0.186-1.612-0.378-3.225-0.563-4.801c4.146,0,7.59,0.445,10.857-0.126c3.173-0.556,6.155-2.174,9.234-3.289
			c12.817-4.642,18.762-14.814,21.809-27.239c1.018-4.15,1.708-8.369,4.504-11.837c0.43-0.532,0.575-1.295,1.02-2.351
			c-19.19-3.561-35.405-0.685-46.075,17.623c-0.204-0.799-0.501-1.342-0.445-1.846c0.609-5.478,0.944-11.015,2.019-16.403
			c1.003-5.03,2.827-9.895,4.258-14.841c2.242-7.753,6.094-14.496,12.45-19.606c0.77-0.618,2.04-0.877,3.071-0.861
			c3.895,0.062,7.821,0.703,11.674,0.381c4.595-0.385,8.578-2.579,12.247-5.494c3.308-2.629,5.248-5.971,7.105-9.651
			C223.12,60.372,223.861,56.6,228.317,54.571z"/>
		<path fill="#FFFFFF" d="M97.599,241.147c-0.689-0.728-1.518-1.233-2.485-1.519c-0.72-0.21-1.766-0.314-3.138-0.314h-6.085v16.489
			h6.265c1.23,0,2.212-0.117,2.947-0.349c0.982-0.314,1.761-0.754,2.339-1.315c0.766-0.743,1.354-1.714,1.767-2.914
			c0.337-0.983,0.506-2.152,0.506-3.509c0-1.545-0.18-2.844-0.54-3.897C98.814,242.767,98.29,241.875,97.599,241.147z
			 M95.935,250.591c-0.225,0.737-0.516,1.269-0.872,1.591c-0.356,0.322-0.804,0.552-1.345,0.686
			c-0.412,0.105-1.083,0.158-2.013,0.158H89.22v-10.921h1.496c1.357,0,2.268,0.052,2.732,0.157c0.623,0.135,1.137,0.394,1.542,0.775
			s0.72,0.915,0.945,1.598c0.225,0.682,0.337,1.661,0.337,2.936C96.272,248.844,96.16,249.852,95.935,250.591z"/>
		<rect x="102.437" y="239.314" fill="#FFFFFF" width="3.329" height="16.489"/>
		<path fill="#FFFFFF" d="M124.257,247.581c0-2.684-0.73-4.78-2.188-6.287c-1.458-1.508-3.402-2.261-5.832-2.261
			c-1.342,0-2.527,0.217-3.554,0.652c-0.773,0.322-1.483,0.816-2.132,1.485c-0.649,0.667-1.16,1.42-1.535,2.261
			c-0.503,1.14-0.754,2.548-0.754,4.228c0,2.625,0.724,4.686,2.171,6.182s3.396,2.244,5.849,2.244c2.422,0,4.356-0.752,5.804-2.256
			C123.533,252.326,124.257,250.242,124.257,247.581z M119.539,251.805c-0.852,0.957-1.94,1.435-3.268,1.435
			s-2.422-0.482-3.285-1.446c-0.862-0.963-1.293-2.378-1.293-4.245c0-1.896,0.42-3.316,1.26-4.258
			c0.839-0.94,1.945-1.411,3.318-1.411c1.372,0,2.472,0.465,3.301,1.395c0.829,0.931,1.243,2.339,1.243,4.229
			C120.815,249.415,120.389,250.85,119.539,251.805z"/>
		<path fill="#FFFFFF" d="M135.617,252.058h6.591l1.439,3.746h3.622l-6.602-16.489h-3.52l-6.423,16.489h3.532L135.617,252.058z
			 M138.867,243.161l2.272,6.119h-4.499L138.867,243.161z"/>
		<polygon fill="#FFFFFF" points="156.965,250.562 153.974,239.314 148.991,239.314 148.991,255.804 152.083,255.804 
			152.083,242.824 155.345,255.804 158.551,255.804 161.824,242.824 161.824,255.804 164.917,255.804 164.917,239.314 
			159.923,239.314 		"/>
		<path fill="#FFFFFF" d="M180.613,245.591c0.417-0.646,0.624-1.354,0.624-2.125c0-0.714-0.168-1.355-0.506-1.93
			c-0.337-0.574-0.759-1.033-1.265-1.378c-0.506-0.346-1.08-0.572-1.72-0.681c-0.642-0.108-1.615-0.163-2.919-0.163h-6.592v16.489
			h5.613c2.122-0.015,3.46-0.053,4.016-0.113c0.884-0.098,1.628-0.358,2.232-0.78c0.604-0.425,1.08-0.991,1.428-1.7
			c0.349-0.707,0.523-1.437,0.523-2.187c0-0.952-0.27-1.78-0.81-2.486c-0.54-0.704-1.312-1.203-2.316-1.496
			C179.632,246.72,180.197,246.236,180.613,245.591z M171.564,242.058h1.912c1.567,0,2.516,0.02,2.845,0.058
			c0.555,0.067,0.973,0.26,1.255,0.579c0.281,0.319,0.421,0.732,0.421,1.242c0,0.533-0.163,0.962-0.49,1.289
			c-0.326,0.325-0.774,0.522-1.343,0.589c-0.315,0.039-1.121,0.058-2.418,0.058h-2.182V242.058z M178.139,252.267
			c-0.311,0.348-0.714,0.567-1.209,0.657c-0.323,0.067-1.084,0.102-2.284,0.102h-3.082v-4.409h2.688
			c1.515,0,2.499,0.079,2.953,0.236c0.454,0.157,0.8,0.408,1.041,0.754c0.24,0.345,0.359,0.764,0.359,1.26
			C178.605,251.45,178.449,251.918,178.139,252.267z"/>
		<rect x="184.758" y="239.314" fill="#FFFFFF" width="3.33" height="16.489"/>
		<polygon fill="#FFFFFF" points="194.588,248.538 202.867,248.538 202.867,245.76 194.588,245.76 194.588,242.104 203.485,242.104 
			203.485,239.314 191.259,239.314 191.259,255.804 203.8,255.804 203.8,253.024 194.588,253.024 		"/>
		<polygon fill="#FFFFFF" points="216.645,250.325 209.897,239.314 206.657,239.314 206.657,255.804 209.75,255.804 209.75,245.05 
			216.398,255.804 219.739,255.804 219.739,239.314 216.645,239.314 		"/>
		<path fill="#FFFFFF" d="M128.829,274.34c-0.776-0.408-1.975-0.804-3.594-1.187c-1.62-0.382-2.639-0.749-3.059-1.102
			c-0.331-0.276-0.495-0.611-0.495-1.001c0-0.428,0.176-0.77,0.528-1.024c0.548-0.396,1.305-0.596,2.272-0.596
			c0.938,0,1.64,0.186,2.108,0.558c0.469,0.37,0.774,0.979,0.917,1.827l3.33-0.146c-0.053-1.514-0.602-2.726-1.647-3.633
			c-1.046-0.908-2.604-1.361-4.674-1.361c-1.267,0-2.348,0.191-3.245,0.574s-1.583,0.939-2.058,1.669
			c-0.477,0.732-0.715,1.518-0.715,2.356c0,1.306,0.506,2.412,1.519,3.318c0.719,0.646,1.971,1.188,3.756,1.632
			c1.387,0.346,2.275,0.585,2.666,0.719c0.569,0.204,0.969,0.442,1.198,0.716c0.229,0.272,0.343,0.604,0.343,0.995
			c0,0.607-0.272,1.138-0.815,1.591c-0.543,0.454-1.352,0.682-2.423,0.682c-1.012,0-1.817-0.256-2.413-0.765
			c-0.596-0.511-0.992-1.31-1.186-2.396l-3.24,0.314c0.217,1.845,0.885,3.248,2.002,4.212s2.718,1.446,4.803,1.446
			c1.432,0,2.627-0.201,3.587-0.603c0.959-0.401,1.702-1.015,2.228-1.839c0.524-0.824,0.787-1.71,0.787-2.654
			c0-1.041-0.22-1.918-0.658-2.626S129.605,274.749,128.829,274.34z"/>
		<path fill="#FFFFFF" d="M138.856,266.956l-6.423,16.489h3.532l1.361-3.745h6.591l1.439,3.745h3.622l-6.602-16.489H138.856z
			 M138.35,276.922l2.227-6.118l2.272,6.118H138.35z"/>
		<polygon fill="#FFFFFF" points="160.767,277.967 154.018,266.956 150.779,266.956 150.779,283.445 153.872,283.445 
			153.872,272.692 160.519,283.445 163.86,283.445 163.86,266.956 160.767,266.956 		"/>
		<path fill="#FFFFFF" d="M174.68,266.675c-1.343,0-2.527,0.217-3.554,0.652c-0.772,0.322-1.483,0.817-2.131,1.485
			c-0.649,0.667-1.161,1.421-1.536,2.261c-0.502,1.14-0.753,2.55-0.753,4.229c0,2.625,0.724,4.685,2.17,6.182
			c1.448,1.495,3.397,2.243,5.849,2.243c2.422,0,4.357-0.751,5.804-2.256c1.447-1.502,2.171-3.586,2.171-6.247
			c0-2.684-0.729-4.78-2.188-6.287C179.054,267.429,177.11,266.675,174.68,266.675z M177.981,279.446
			c-0.851,0.957-1.94,1.435-3.267,1.435s-2.421-0.481-3.285-1.445c-0.862-0.964-1.293-2.379-1.293-4.246
			c0-1.896,0.419-3.316,1.26-4.257c0.839-0.941,1.946-1.412,3.318-1.412s2.473,0.465,3.301,1.395
			c0.829,0.931,1.242,2.34,1.242,4.229C179.257,277.057,178.833,278.491,177.981,279.446z"/>
	</g>
</g>
</svg>
