<?xml version="1.0" encoding="utf-8"?>
<!-- Generator: Adobe Illustrator 16.0.0, SVG Export Plug-In . SVG Version: 6.00 Build 0)  -->
<!DOCTYPE svg PUBLIC "-//W3C//DTD SVG 1.0//EN" "http://www.w3.org/TR/2001/REC-SVG-20010904/DTD/svg10.dtd">
<svg version="1.0" id="Capa_1" xmlns="http://www.w3.org/2000/svg" xmlns:xlink="http://www.w3.org/1999/xlink" x="0px" y="0px"
	 width="300px" height="300px" viewBox="0 0 300 300" enable-background="new 0 0 300 300" xml:space="preserve">
<g>
	<path fill="#D31F37" d="M242.623,0H57.378C25.82,0,0,25.82,0,57.377v185.245C0,274.18,25.82,300,57.378,300h185.245
		C274.181,300,300,274.18,300,242.622V57.377C300,25.82,274.181,0,242.623,0z"/>
	<g>
		<path fill="#FFFFFF" d="M237.163,93.359c0.03-5.087-6.013-11.348-11.167-11.244c-12.807,0.257-25.622,0.085-38.436,0.085h-3.535
			c0-3.951-0.2-7.693,0.041-11.406c0.506-7.747-8.048-16.074-15.808-15.874c-12.707,0.327-25.43,0.201-38.145,0.048
			c-8.2-0.099-15.844,7.689-15.726,15.717c0.055,3.732,0.01,7.464,0.01,11.516c-13.821,0-27.109-0.007-40.396,0.003
			c-6.435,0.005-11.16,4.72-11.161,11.138c-0.005,31.597-0.005,63.194,0,94.792c0.001,6.353,4.806,11.174,11.149,11.175
			c50.672,0.006,101.343-0.047,152.015,0.079c5.208,0.014,11.186-6.137,11.155-11.236
			C236.975,156.553,236.973,124.956,237.163,93.359z M126.158,71.875c0.907-4.305,2.661-5.616,7.181-5.67
			c10.405-0.123,20.814-0.166,31.218,0.012c5.881,0.1,8.291,2.929,8.313,8.919c0.009,2.208,0.002,4.417,0.002,6.843h-47.539
			C125.59,78.47,125.481,75.09,126.158,71.875z M181.058,144.473c-0.059,3.309-1.023,4.286-4.294,4.297
			c-6.14,0.021-12.279,0.006-18.803,0.006c0,4.41,0,8.527,0,12.645c0.001,2.215,0.022,4.43-0.004,6.644
			c-0.029,2.518-1.206,3.889-3.853,3.845c-2.695-0.043-5.392,0.017-8.087-0.015c-2.986-0.035-4.046-1.108-4.065-4.191
			c-0.032-5.199,0-10.399-0.016-15.598c-0.002-1.036-0.099-2.07-0.164-3.329c-6.305,0-12.359,0.01-18.412-0.003
			c-3.501-0.008-4.466-0.94-4.512-4.372c-0.033-2.406-0.03-4.814-0.002-7.221c0.043-3.483,0.997-4.44,4.441-4.449
			c6.056-0.016,12.113-0.005,18.657-0.005c0-2.849,0-5.505,0-8.16c0-3.658-0.042-7.317,0.011-10.976
			c0.04-2.871,1.143-3.942,3.989-3.981c2.599-0.035,5.198-0.025,7.798-0.003c3.177,0.027,4.196,1.062,4.212,4.345
			c0.026,5.103,0.007,10.206,0.006,15.31c0,1.04,0,2.08,0,3.466c5.891,0,11.443,0,16.995,0c5.689,0,6.108,0.429,6.109,6.258
			C181.065,140.814,181.09,142.644,181.058,144.473z"/>
		<path fill="#FFFFFF" d="M122.247,246.698c-0.775-0.409-1.974-0.804-3.594-1.187s-2.64-0.75-3.059-1.103
			c-0.331-0.277-0.495-0.61-0.495-1.001c0-0.427,0.175-0.769,0.528-1.024c0.547-0.397,1.305-0.596,2.271-0.596
			c0.938,0,1.641,0.186,2.109,0.557c0.468,0.371,0.773,0.98,0.916,1.828l3.33-0.146c-0.054-1.515-0.602-2.726-1.648-3.633
			c-1.046-0.908-2.604-1.361-4.673-1.361c-1.268,0-2.349,0.191-3.245,0.573c-0.896,0.383-1.582,0.939-2.058,1.67
			c-0.477,0.732-0.715,1.517-0.715,2.356c0,1.305,0.506,2.411,1.519,3.318c0.72,0.646,1.972,1.188,3.756,1.631
			c1.388,0.345,2.276,0.585,2.667,0.719c0.569,0.203,0.968,0.441,1.197,0.714s0.343,0.605,0.343,0.996
			c0,0.607-0.271,1.138-0.814,1.592c-0.544,0.454-1.353,0.681-2.425,0.681c-1.012,0-1.816-0.256-2.412-0.765
			c-0.596-0.51-0.992-1.309-1.187-2.396l-3.24,0.314c0.218,1.844,0.886,3.248,2.003,4.212c1.117,0.963,2.718,1.445,4.803,1.445
			c1.432,0,2.628-0.201,3.588-0.603c0.959-0.4,1.702-1.013,2.227-1.839c0.525-0.823,0.787-1.709,0.787-2.654
			c0-1.041-0.219-1.918-0.658-2.625C123.631,247.666,123.023,247.107,122.247,246.698z"/>
		<path fill="#FFFFFF" d="M132.273,239.314l-6.422,16.488h3.532l1.361-3.745h6.591l1.439,3.745h3.622l-6.603-16.488H132.273z
			 M131.769,249.28l2.227-6.119l2.272,6.119H131.769z"/>
		<polygon fill="#FFFFFF" points="147.582,239.45 144.253,239.45 144.253,255.804 155.86,255.804 155.86,253.025 147.582,253.025 		
			"/>
		<path fill="#FFFFFF" d="M168.03,248.436c0,1.305-0.049,2.24-0.146,2.801c-0.098,0.562-0.387,1.037-0.866,1.423
			c-0.48,0.386-1.192,0.579-2.138,0.579c-0.929,0-1.662-0.204-2.199-0.612c-0.535-0.409-0.875-0.951-1.018-1.626
			c-0.082-0.419-0.123-1.338-0.123-2.755v-8.93h-3.33v8.796c0,1.844,0.108,3.239,0.327,4.184c0.149,0.638,0.461,1.248,0.934,1.828
			c0.472,0.581,1.115,1.054,1.929,1.417c0.813,0.364,2.008,0.546,3.582,0.546c1.305,0,2.362-0.167,3.172-0.5
			c0.811-0.333,1.457-0.782,1.94-1.344c0.483-0.562,0.815-1.252,0.996-2.071c0.179-0.817,0.27-2.215,0.27-4.194v-8.661h-3.33
			V248.436z"/>
		<path fill="#FFFFFF" d="M186.566,241.147c-0.689-0.727-1.518-1.233-2.485-1.519c-0.72-0.21-1.766-0.314-3.138-0.314h-6.085v16.488
			h6.265c1.229,0,2.212-0.116,2.947-0.348c0.981-0.315,1.762-0.754,2.339-1.316c0.766-0.743,1.354-1.714,1.766-2.914
			c0.338-0.982,0.507-2.151,0.507-3.509c0-1.545-0.18-2.843-0.54-3.897C187.781,242.766,187.257,241.875,186.566,241.147z
			 M184.902,250.59c-0.225,0.738-0.516,1.269-0.872,1.591c-0.355,0.322-0.804,0.551-1.344,0.686
			c-0.413,0.106-1.084,0.159-2.013,0.159h-2.486v-10.922h1.496c1.356,0,2.268,0.053,2.732,0.157
			c0.623,0.136,1.137,0.394,1.541,0.776c0.405,0.382,0.721,0.915,0.945,1.598c0.225,0.682,0.337,1.661,0.337,2.936
			C185.239,248.844,185.127,249.852,184.902,250.59z"/>
	</g>
</g>
</svg>
