<?xml version="1.0" encoding="utf-8"?>
<!-- Generator: Adobe Illustrator 16.0.0, SVG Export Plug-In . SVG Version: 6.00 Build 0)  -->
<!DOCTYPE svg PUBLIC "-//W3C//DTD SVG 1.0//EN" "http://www.w3.org/TR/2001/REC-SVG-20010904/DTD/svg10.dtd">
<svg version="1.0" id="Capa_1" xmlns="http://www.w3.org/2000/svg" xmlns:xlink="http://www.w3.org/1999/xlink" x="0px" y="0px"
	 width="300px" height="300px" viewBox="0 0 300 300" enable-background="new 0 0 300 300" xml:space="preserve">
<g>
	<path fill="#4463FD" d="M242.623,0H57.377C25.82,0,0,25.82,0,57.377v185.245C0,274.18,25.82,300,57.377,300h185.246
		C274.18,300,300,274.18,300,242.622V57.377C300,25.82,274.18,0,242.623,0z"/>
	<path fill="#4463FD" d="M229.813,37.041c0.011-1.926,0-3.852-0.007-5.778C229.813,33.189,229.824,35.115,229.813,37.041"/>
	<path fill="#4463FD" d="M229.798,28.373c0,0.963,0.003,1.926,0.007,2.889C229.801,30.299,229.798,29.336,229.798,28.373
		c0-3.756-0.011-7.512,0.002-11.269C229.788,20.861,229.798,24.617,229.798,28.373"/>
	<path fill="#4463FD" d="M132.664,246.614c0-0.048-0.007-0.099-0.011-0.147C132.656,246.516,132.663,246.566,132.664,246.614
		c0,0.72,0.06,1.447,0.036,2.163C132.724,248.062,132.664,247.334,132.664,246.614"/>
	<path fill="#4463FD" d="M110.338,241.926c-1.44-0.121-2.08,0.291-2.014,1.881c0.059,1.417,0.083,2.562,1.698,2.206
		c1.743-0.077,3.453-0.028,3.469-2.031C113.507,241.973,111.805,242.048,110.338,241.926"/>
	<path fill="#4463FD" d="M153.441,243.607c-0.821,0.593-0.845,1.596-1.169,2.429c-0.33,0.846-0.866,1.658-0.69,2.64
		c4.312,0.436,4.334,0.427,2.833-3.388C154.192,244.725,154.245,243.944,153.441,243.607"/>
	<g>
		<path fill="#FFFFFF" d="M36.676,3.62c0.195-0.145,0.383-0.305,0.565-0.476c0,0,0,0,0.001,0c3.369-0.658,6.643-1.635,9.829-2.912
			h-2.313c-0.887,0.461-1.835,0.761-2.794,1.037c0.958-0.276,1.907-0.576,2.794-1.037c-14.219,0-28.439,0.034-42.658-0.047
			C0.485,0.177,0.181,0.529,0.188,2.113C0.262,17.87,0.233,33.627,0.233,49.385c0.198-0.725,0.417-1.443,0.591-2.174
			c0.908-3.773,1.516-7.64,3.464-11.088c0.681-0.747,1.205-1.567,1.241-2.619l0,0c0.184-0.142,0.326-0.297,0.422-0.469
			c0.064-0.114,0.108-0.234,0.13-0.363c0.011-0.064,0.017-0.131,0.017-0.199c0-0.137-0.02-0.279-0.064-0.432
			c-0.345,0.317-0.482,0.707-0.505,1.135c0.022-0.429,0.16-0.817,0.505-1.135c0.138-0.193,0.285-0.381,0.427-0.572
			c0.142-0.191,0.279-0.385,0.398-0.59c3.663-6.305,7.879-12.117,13.43-16.986c3.995-3.504,8.572-6.056,12.904-9.014
			c0.014-0.014,0.03-0.021,0.043-0.036c-0.014,0.015-0.03,0.022-0.044,0.037c0.076,0.021,0.15,0.038,0.222,0.048
			c0.072,0.012,0.142,0.016,0.21,0.016c0.106,0,0.207-0.019,0.304-0.045c0.028-0.008,0.056-0.012,0.083-0.022
			c0.243-0.087,0.458-0.257,0.646-0.503c0,0,0,0,0,0C35.439,4.346,36.091,4.054,36.676,3.62z"/>
		<path fill="#FFFFFF" d="M266.78,168.007c-0.843-0.379-1.458-0.548-1.72-1.568c-2.635-10.225-6.047-20.228-9.598-30.142
			c-2.436-6.799-5.423-9.508-13.771-9.434c-4.529,0.041-9.06-0.018-13.588,0.018c-2.543,0.02-5.085,0.218-7.627,0.195
			c-4.542-0.039-8.678,0.824-11.452,4.857c-3.441,5.002-4.54,10.947-6.29,16.578c-1.782,5.734-3.949,11.337-5.63,17.102
			c-0.458,1.569-1.166,2.059-2.841,0.808c-2.342-1.75-5.466-1.964-8.139-1.72c-6.416,0.584-12.814,0.051-19.208,0.364
			c-1.285,0.062-2.012-0.396-2.366-1.52c-1.02-3.231-2.014-6.471-2.988-9.715c-1.749-5.83-3.332-11.714-5.248-17.487
			c-2.282-6.883-7.182-9.812-14.476-9.541c-8.268,0.307-16.557-0.017-24.824,0.627c-2.188,0.17-3.885,1.281-5.29,2.706
			c-4.4,4.46-5.815,10.253-6.802,16.18c-0.133,0.794-0.144,1.68-1.022,1.814c-0.943,0.145-1.126-0.692-1.36-1.49
			c-0.899-3.071-1.838-6.134-2.871-9.161c-2.623-7.686-7.68-11.045-15.33-10.644c-5.274,0.276-10.56,0.243-15.845,0.503
			c-6.865,0.339-10.396,2.663-12.505,8.532c-3.37,9.374-6.04,19.002-8.929,28.547c-0.813,2.686,0.524,5.866,2.441,6.371
			c2.333,0.615,5.47-1.171,6.151-3.985c1.42-5.865,3.591-11.485,5.414-17.212c0.787-2.469,1.059-5.224,2.781-7.341
			c0.417-0.514,0.817-1.504,1.741-1.082c0.869,0.396,0.71,1.412,0.511,2.067c-0.395,1.298-0.308,2.655-0.609,3.921
			c-2.706,11.364-5.459,22.718-8.307,34.047c-1.452,5.777-1.551,5.857,4.142,5.754c2.386-0.043,3.176,0.668,3.146,3.11
			c-0.122,9.924-0.049,19.852-0.053,29.778c0,1.604,0.194,3.03,1.424,4.336c1.976,2.098,4.344,1.992,6.594,1.221
			c2.449-0.84,3-3.089,2.988-5.553c-0.047-9.733,0.028-19.467-0.06-29.199c-0.017-1.895,0.406-3.522,2.363-3.468
			c1.922,0.052,2.333,1.824,2.319,3.599c-0.041,5.012-0.028,10.023-0.007,15.034c0.007,1.816-1.195,3.604-0.499,5.358
			c0.969,2.438,0.493,4.904,0.316,7.284c-0.308,4.135,1.61,7.567,4.942,7.838c3.812,0.311,6.216-2.419,6.218-7.068
			c0.003-8.578,0.001-17.154,0.001-25.732c0-6.005,0-6.007,6.025-6.49c0.096-0.008,0.194,0.007,0.289-0.005
			c1.164-0.147,1.716-0.292,1.467-1.957c-0.635-4.223-1.893-8.282-2.878-12.401c-2.325-9.713-4.972-19.347-6.799-29.181
			c-0.216-1.162-0.364-1.782,0.884-2.107c1.28-0.332,1.761,0.57,2.043,1.474c1.82,5.837,3.367,11.77,5.456,17.506
			c1.052,2.889,1.27,6.129,3.319,8.651c1.173,1.443,2.657,2.258,4.444,1.758c1.491-0.418,3.01-1.602,2.981-3.106
			c-0.061-3.236,1.007-6.136,1.846-9.135c1.366-4.88,2.63-9.791,4.037-14.66c0.387-1.339,0.893-2.96,2.877-2.444
			c1.739,0.451,1.164,2,1.167,3.146c0.016,6.312,0.021,12.624,0.022,18.938c0.001,6.312-0.002,12.624-0.002,18.937
			c0,12.527-0.002,25.057,0.001,37.584c0.001,3.675,2.089,5.722,5.846,5.748c4.241,0.032,6.274-1.83,6.289-5.832
			c0.021-6.168,0.006-12.336,0.006-18.503c0-8,0.018-15.998-0.015-23.996c-0.006-1.544,0.21-2.676,2.156-2.565
			c1.716,0.099,1.701,0.896,1.747,2.45c0.125,4.193-0.056,8.337-0.303,12.527c-0.414,7.01-0.28,14.069-0.012,21.094
			c0.083,2.165,0.35,4.241-0.038,6.434c-0.47,2.665-0.011,5.3,2.208,7.207c2.116,1.818,4.7,1.664,6.982,0.74
			c2.461-0.996,3.487-3.229,3.483-5.976c-0.031-25.057-0.03-50.113,0.031-75.169c0.002-0.918-0.928-2.512,0.937-2.785
			c1.856-0.271,2.102,1.342,2.456,2.574c2.076,7.235,4.22,14.454,6.073,21.747c0.664,2.611,2.059,4.218,4.421,5.059
			c1.588,0.565,3.286,0.818,4.927,1.24c4.848,1.244,4.775,1.251,4.863,6.314c0.16,9.225-0.244,18.434-0.591,27.646
			c-0.194,5.163,0.445,10.309,0.264,15.487c-0.085,2.429,2.006,3.811,4.305,4.223c2.105,0.377,2.945-1.108,3.626-2.869
			c0.437-1.131,0.471-2.219,0.471-3.356c0.005-6.456,0.017-12.913-0.009-19.37c-0.005-1.108,0.001-2.371,1.359-2.337
			c1.336,0.034,0.949,1.397,0.953,2.263c0.028,6.36,0.039,12.721-0.004,19.081c-0.009,1.264,0.105,2.478,0.623,3.615
			c0.857,1.882,2.34,3.242,4.414,2.96c2.15-0.293,3.485-1.836,3.644-4.133c0.053-0.768-0.001-1.542,0.013-2.312
			c0.267-13.542-0.523-27.093,0.374-40.632c0.07-1.061,0.02-1.825,1.241-1.953c1.638-0.174,1.339,1.081,1.25,1.934
			c-0.43,4.119,0.773,8.203,0.132,12.354c-0.182,1.179,0.066,2.865,1.671,3.592c2.506,1.134,4.507-0.272,4.562-3.387
			c0.077-4.433,0.044-8.865,0.01-13.299c-0.014-1.681,0.564-2.794,2.367-2.946c1.725-0.146,2.801-1.142,3.346-2.677
			c1.603-4.513,3.182-9.033,4.697-13.575c1.788-5.358,3.488-10.747,5.257-16.112c0.276-0.84,0.856-1.691,1.781-1.611
			c1.104,0.097,1.071,1.145,1.069,2.026c-0.006,2.352-0.001,4.703-0.001,7.056c0,22.55,0.003,45.102-0.007,67.651
			c0,1.529,0.117,3.005,0.548,4.5c0.814,2.826,3.233,4.131,7.091,3.614c2.23-0.298,4.986-2.986,4.783-4.996
			c-0.962-9.496,1.091-18.964,0.25-28.432c-0.426-4.788-0.521-9.562-0.51-14.352c0.003-1.364-0.463-3.027,1.877-3.113
			c2.493-0.091,2.158,1.606,2.159,3.135c0.003,13.974-0.005,27.947,0.007,41.922c0.002,3.476,1.869,5.51,5.272,5.841
			c3.679,0.358,6.017-1.565,6.975-4.718c0.698-2.296-0.164-4.297-0.157-6.432c0.074-23.225,0.046-46.45,0.047-69.676
			c0-0.675-0.008-1.35,0.016-2.023c0.038-1.111,0.764-1.873,1.702-2.004c0.913-0.125,0.954,0.884,1.242,1.608
			c2.925,7.351,4.337,15.195,7.383,22.509c0.795,1.91,0.643,3.389-1.451,4.952c-2.222,1.659-4.651,3.461-4.962,6.991
			c-0.415,4.709-0.656,9.365-0.536,14.104c0.256,10.112,0.07,20.233,0.091,30.353c0.003,0.931-0.083,1.84,0.367,2.8
			c0.535,1.143,1.185,1.605,2.415,1.556c1.177-0.048,1.542-0.635,1.925-1.692c0.445-1.228,0.479-2.416,0.479-3.648
			c0.005-13.202,0.023-26.405-0.006-39.607c-0.012-5.292,3.487-8.049,7.941-8.697c3.702-0.54,6.389,2.879,6.491,7.878
			c0.037,1.824,0.944,3.29,2.427,3.332c1.695,0.047,2.653-1.512,2.821-3.358C274.202,175.057,271.414,170.085,266.78,168.007z"/>
		<path fill="#FFFFFF" d="M201.415,18.707c-0.263,12.111,1.003,24.189,0.626,36.298c-0.06,1.895,0.83,3.532,1.75,4.989
			c3.936,6.229,9.549,10.971,14.887,15.887c4.991,4.596,10.508,8.614,15.651,13.053c4.52,3.9,8.847,8.023,13.249,12.06
			c2.434,2.231,5.311,1.704,5.821-1.245c0.792-4.576-0.255-9.016-3.688-12.051c-4.404-3.893-8.04-8.6-12.902-11.977
			c-0.525-0.365-0.755-0.893-0.576-1.506c0.226-0.775,0.928-0.451,1.446-0.54c0.942-0.16,1.765,0.323,2.359,0.847
			c3.255,2.867,6.977,5.18,9.936,8.393c1.906,2.071,3.851,4.109,4.659,6.926c1.361,4.736,1.7,9.654,2.593,14.475
			c1.188,6.402,2.293,12.826,3.171,19.275c0.549,4.033,3.047,6.186,7.032,5.642c3.82-0.522,4.916-3.382,4.381-7.384
			c-0.3-2.249-0.876-4.49-0.907-6.741c-0.058-4.397-1.096-8.667-1.383-13.049c-0.437-6.679-1.707-13.31-2.741-19.94
			c-0.571-3.668-1.467-7.221-4.511-9.831c-4.788-4.105-9.49-8.312-14.232-12.472c-5.135-4.506-10.19-9.109-15.451-13.464
			c-2.146-1.776-2.858-3.81-2.808-6.421c0.018-0.963,0.029-1.926,0.034-2.889c0.01-1.926,0-3.852-0.007-5.779
			c-0.004-0.963-0.008-1.926-0.008-2.889c0-3.756-0.01-7.512,0.003-11.269c0.014-3.996-0.811-4.955-4.683-5.866
			c-7.041-1.656-14.052-3.438-21.099-5.068c-1.158-0.268-3.253-0.784-2.897,1.37C201.741,11.282,201.495,15.001,201.415,18.707z"/>
		<path fill="#FFFFFF" d="M41.511,91.259c-0.814,4.853-1.376,9.753-1.94,14.644c-0.631,5.467-1.041,10.959-1.747,16.414
			c-0.5,3.857,1.153,6.305,5.294,7.207c2.749,0.599,4.952-1.177,5.66-4.881c1.064-5.559,1.957-11.15,2.924-16.729
			c0.984-5.673,1.762-11.392,3.011-17.006c1.334-5.999,6.284-9.336,10.583-13.051c1.631-1.41,3.536-2.502,5.304-3.755
			c0.789-0.558,1.764-0.77,2.341-0.062c0.547,0.673-0.117,1.434-0.724,1.957c-1.808,1.556-3.481,3.267-5.237,4.874
			c-3.746,3.428-7.84,6.69-9.903,11.562c-0.827,1.953-1.528,3.964-1.013,6.258c0.381,1.695,0.885,3.498,2.549,3.721
			c1.703,0.228,3.364-0.933,4.651-2.215c1.835-1.83,3.51-3.832,5.447-5.542c5.479-4.839,10.961-9.661,16.758-14.15
			c5.127-3.971,9.921-8.417,14.454-13.11c4.688-4.854,8.081-10.06,7.939-17.273c-0.26-13.193-0.076-26.397-0.071-39.596
			c0-1.289-0.268-2.651,1.075-3.66c-2.061-0.596-3.799,0.025-5.607,0.199c-6.834,0.654-13.208,3.053-19.798,4.623
			c-3.235,0.77-4.048,3.155-3.786,5.434c0.752,6.527,0.281,13.039,0.265,19.545c-0.009,3.455,0.507,7.15-3.046,9.919
			c-5.302,4.134-10.381,8.567-15.231,13.263c-3.235,3.131-6.845,5.885-10.364,8.711c-4.636,3.725-7.842,8.072-8.464,14.329
			C42.56,85.639,41.979,88.473,41.511,91.259z"/>
		<path fill="#FFFFFF" d="M76.925,104.412c-5.55-0.064-10.127,3.99-10.086,10.276c0.038,5.709,3.297,10.007,10.404,10.445
			c5.406-0.037,10.608-5.216,10.231-10.739C87.081,108.624,83.471,104.486,76.925,104.412z"/>
		<path fill="#FFFFFF" d="M220.548,114.136c-0.012,5.536,4.768,10.509,10.152,10.401c6.077-0.123,10.622-5.052,10.508-10.509
			c-0.124-6.044-3.517-9.624-10.211-10.288C225.342,103.725,220.559,108.482,220.548,114.136z"/>
		<path fill="#FFFFFF" d="M131.672,125.134c5.147,0.021,11.002-5.825,10.784-10.768c-0.225-5.094-5.467-10.165-10.839-9.987
			c-6.144,0.203-10.33,4.641-10.4,10.752C121.164,119.723,126.011,125.469,131.672,125.134z"/>
		<path fill="#FFFFFF" d="M179.953,162.719c3.767,0.072,7.693-3.977,7.607-7.85c-0.072-3.308-3.405-6.548-6.79-6.604
			c-4.688-0.076-8.04,2.805-8.212,7.056C172.399,159.21,175.828,162.639,179.953,162.719z"/>
		<path fill="#FFFFFF" d="M46.491,246.698c-0.776-0.409-1.975-0.805-3.594-1.188c-1.62-0.382-2.64-0.749-3.06-1.102
			c-0.33-0.276-0.495-0.61-0.495-1.001c0-0.428,0.175-0.769,0.528-1.024c0.548-0.396,1.305-0.595,2.272-0.595
			c0.938,0,1.64,0.186,2.108,0.557c0.468,0.37,0.774,0.979,0.917,1.828l3.33-0.147c-0.053-1.514-0.602-2.726-1.647-3.633
			c-1.046-0.908-2.604-1.36-4.674-1.36c-1.267,0-2.349,0.19-3.245,0.573c-0.896,0.383-1.583,0.94-2.059,1.67
			c-0.477,0.731-0.714,1.517-0.714,2.355c0,1.307,0.506,2.412,1.519,3.319c0.72,0.646,1.972,1.188,3.756,1.631
			c1.388,0.346,2.276,0.585,2.667,0.72c0.569,0.203,0.969,0.441,1.198,0.715s0.343,0.605,0.343,0.995
			c0,0.607-0.272,1.139-0.815,1.592c-0.543,0.454-1.352,0.681-2.424,0.681c-1.012,0-1.816-0.255-2.413-0.765
			c-0.595-0.511-0.992-1.31-1.186-2.396l-3.24,0.313c0.218,1.845,0.885,3.249,2.002,4.212c1.117,0.964,2.718,1.446,4.803,1.446
			c1.432,0,2.628-0.201,3.588-0.603c0.959-0.4,1.702-1.014,2.227-1.839c0.525-0.824,0.788-1.71,0.788-2.654
			c0-1.041-0.219-1.918-0.658-2.626C47.874,247.666,47.267,247.106,46.491,246.698z"/>
		<polygon fill="#FFFFFF" points="55.101,248.538 63.378,248.538 63.378,245.759 55.101,245.759 55.101,242.104 63.998,242.104 
			63.998,239.314 51.771,239.314 51.771,255.803 64.312,255.803 64.312,253.024 55.101,253.024 		"/>
		<path fill="#FFFFFF" d="M74.807,249.741h3.812v2.092c-0.502,0.39-1.104,0.722-1.805,0.995c-0.701,0.274-1.4,0.411-2.098,0.411
			c-1.41,0-2.549-0.49-3.419-1.469c-0.87-0.979-1.305-2.446-1.305-4.402c0-1.815,0.429-3.184,1.288-4.106
			c0.858-0.923,2.015-1.384,3.469-1.384c0.96,0,1.761,0.235,2.402,0.703c0.641,0.47,1.077,1.107,1.31,1.919l3.307-0.619
			c-0.331-1.515-1.071-2.702-2.222-3.561c-1.151-0.858-2.75-1.287-4.797-1.287c-1.574,0-2.89,0.274-3.947,0.821
			c-1.387,0.712-2.441,1.735-3.161,3.07c-0.72,1.334-1.08,2.86-1.08,4.577c0,1.583,0.322,3.047,0.967,4.393
			c0.645,1.347,1.608,2.382,2.891,3.104c1.282,0.724,2.785,1.085,4.51,1.085c1.357,0,2.697-0.257,4.021-0.77
			c1.323-0.515,2.333-1.108,3.031-1.783v-6.569h-7.176V249.741z"/>
		<path fill="#FFFFFF" d="M94.85,248.436c0,1.306-0.048,2.239-0.146,2.801c-0.098,0.562-0.386,1.037-0.866,1.423
			c-0.481,0.387-1.193,0.579-2.138,0.579c-0.93,0-1.663-0.204-2.199-0.612c-0.536-0.409-0.875-0.95-1.018-1.626
			c-0.083-0.42-0.124-1.338-0.124-2.756v-8.93h-3.33v8.795c0,1.845,0.109,3.24,0.326,4.185c0.15,0.638,0.461,1.247,0.934,1.827
			c0.473,0.582,1.116,1.054,1.929,1.418c0.813,0.363,2.007,0.545,3.582,0.545c1.305,0,2.362-0.167,3.172-0.5
			c0.81-0.333,1.456-0.781,1.94-1.344c0.483-0.562,0.816-1.252,0.996-2.071c0.18-0.816,0.27-2.215,0.27-4.193v-8.661h-3.33V248.436z
			"/>
		<path fill="#FFFFFF" d="M112.615,249.909c-0.468-0.502-1.062-0.964-1.783-1.384c1.447-0.209,2.535-0.717,3.262-1.523
			c0.728-0.806,1.091-1.828,1.091-3.064c0-0.975-0.24-1.842-0.72-2.6c-0.48-0.757-1.119-1.283-1.917-1.579
			c-0.798-0.297-2.079-0.444-3.841-0.444H101.7v16.488h3.329v-6.883h0.675c0.765,0,1.323,0.061,1.676,0.185
			c0.353,0.125,0.686,0.353,1.001,0.688c0.315,0.333,0.9,1.141,1.755,2.424l2.407,3.587h3.981l-2.013-3.217
			C113.716,251.304,113.084,250.412,112.615,249.909z M107.492,246.288h-2.463v-4.184h2.599c1.349,0,2.159,0.018,2.429,0.055
			c0.54,0.091,0.958,0.307,1.254,0.647c0.296,0.341,0.444,0.789,0.444,1.344c0,0.495-0.112,0.907-0.337,1.237
			c-0.225,0.331-0.536,0.562-0.933,0.697C110.086,246.22,109.089,246.288,107.492,246.288z"/>
		<rect x="118.223" y="239.314" fill="#FFFFFF" width="3.33" height="16.488"/>
		<path fill="#FFFFFF" d="M136.421,241.147c-0.69-0.728-1.518-1.233-2.486-1.519c-0.72-0.21-1.766-0.314-3.138-0.314h-6.085v16.488
			h6.265c1.23,0,2.212-0.116,2.947-0.348c0.982-0.315,1.761-0.755,2.339-1.315c0.766-0.743,1.354-1.714,1.767-2.915
			c0.337-0.982,0.506-2.151,0.506-3.508c0-1.545-0.18-2.845-0.54-3.898C137.636,242.766,137.111,241.875,136.421,241.147z
			 M134.756,250.59c-0.225,0.738-0.516,1.269-0.872,1.592c-0.356,0.322-0.804,0.552-1.345,0.686
			c-0.412,0.105-1.083,0.158-2.013,0.158h-2.485v-10.921h1.496c1.357,0,2.268,0.052,2.732,0.156
			c0.623,0.136,1.137,0.395,1.542,0.776s0.72,0.915,0.945,1.597c0.225,0.683,0.337,1.662,0.337,2.937
			C135.093,248.844,134.981,249.852,134.756,250.59z"/>
		<path fill="#FFFFFF" d="M146.105,239.314l-6.422,16.488h3.532l1.361-3.745h6.591l1.44,3.745h3.621l-6.602-16.488H146.105z
			 M145.599,249.28l2.227-6.119l2.272,6.119H145.599z"/>
		<path fill="#FFFFFF" d="M169.692,241.147c-0.69-0.728-1.519-1.233-2.486-1.519c-0.72-0.21-1.766-0.314-3.138-0.314h-6.084v16.488
			h6.265c1.229,0,2.212-0.116,2.947-0.348c0.982-0.315,1.761-0.755,2.339-1.315c0.765-0.743,1.353-1.714,1.766-2.915
			c0.337-0.982,0.506-2.151,0.506-3.508c0-1.545-0.18-2.845-0.54-3.898C170.907,242.766,170.382,241.875,169.692,241.147z
			 M168.027,250.59c-0.225,0.738-0.516,1.269-0.872,1.592c-0.356,0.322-0.804,0.552-1.344,0.686
			c-0.412,0.105-1.084,0.158-2.013,0.158h-2.486v-10.921h1.496c1.356,0,2.268,0.052,2.732,0.156
			c0.623,0.136,1.136,0.395,1.542,0.776c0.405,0.382,0.72,0.915,0.945,1.597c0.225,0.683,0.337,1.662,0.337,2.937
			C168.365,248.844,168.252,249.852,168.027,250.59z"/>
		<path fill="#FFFFFF" d="M191.113,246.698c-0.776-0.409-1.974-0.805-3.594-1.188c-1.62-0.382-2.64-0.749-3.059-1.102
			c-0.33-0.276-0.495-0.61-0.495-1.001c0-0.428,0.176-0.769,0.529-1.024c0.547-0.396,1.305-0.595,2.272-0.595
			c0.937,0,1.64,0.186,2.109,0.557c0.468,0.37,0.774,0.979,0.917,1.828l3.33-0.147c-0.053-1.514-0.602-2.726-1.648-3.633
			c-1.046-0.908-2.604-1.36-4.674-1.36c-1.267,0-2.349,0.19-3.245,0.573s-1.583,0.94-2.059,1.67
			c-0.476,0.731-0.714,1.517-0.714,2.355c0,1.307,0.506,2.412,1.518,3.319c0.72,0.646,1.973,1.188,3.757,1.631
			c1.387,0.346,2.276,0.585,2.666,0.72c0.57,0.203,0.969,0.441,1.198,0.715s0.343,0.605,0.343,0.995
			c0,0.607-0.271,1.139-0.815,1.592c-0.543,0.454-1.352,0.681-2.423,0.681c-1.013,0-1.817-0.255-2.413-0.765
			c-0.597-0.511-0.992-1.31-1.187-2.396l-3.239,0.313c0.217,1.845,0.884,3.249,2.002,4.212c1.117,0.964,2.718,1.446,4.803,1.446
			c1.433,0,2.628-0.201,3.588-0.603c0.959-0.4,1.702-1.014,2.227-1.839c0.525-0.824,0.788-1.71,0.788-2.654
			c0-1.041-0.219-1.918-0.658-2.626C192.497,247.666,191.889,247.106,191.113,246.698z"/>
		<path fill="#FFFFFF" d="M203.693,239.033c-1.342,0-2.527,0.217-3.554,0.651c-0.772,0.323-1.483,0.817-2.131,1.485
			c-0.649,0.668-1.161,1.421-1.535,2.262c-0.502,1.14-0.754,2.548-0.754,4.228c0,2.625,0.724,4.686,2.171,6.182
			s3.396,2.243,5.849,2.243c2.421,0,4.356-0.751,5.803-2.255c1.448-1.503,2.171-3.587,2.171-6.248c0-2.684-0.729-4.78-2.187-6.287
			C208.067,239.786,206.123,239.033,203.693,239.033z M206.995,251.805c-0.852,0.957-1.94,1.435-3.268,1.435
			c-1.327,0-2.422-0.482-3.284-1.446c-0.863-0.963-1.294-2.379-1.294-4.246c0-1.896,0.42-3.315,1.26-4.257
			c0.84-0.94,1.946-1.412,3.318-1.412c1.373,0,2.473,0.466,3.301,1.396c0.829,0.931,1.243,2.339,1.243,4.229
			C208.271,249.414,207.846,250.849,206.995,251.805z"/>
		<path fill="#FFFFFF" d="M223.489,252.396c-0.637,0.562-1.398,0.844-2.283,0.844c-1.2,0-2.175-0.443-2.925-1.327
			c-0.75-0.885-1.125-2.37-1.125-4.454c0-1.966,0.381-3.387,1.142-4.263c0.761-0.879,1.753-1.317,2.975-1.317
			c0.885,0,1.637,0.249,2.255,0.742c0.619,0.496,1.025,1.17,1.221,2.025l3.295-0.787c-0.375-1.319-0.938-2.331-1.687-3.037
			c-1.26-1.192-2.898-1.788-4.916-1.788c-2.31,0-4.172,0.759-5.59,2.278c-1.417,1.518-2.125,3.648-2.125,6.393
			c0,2.596,0.705,4.641,2.114,6.137s3.209,2.243,5.399,2.243c1.77,0,3.229-0.436,4.38-1.31c1.151-0.875,1.975-2.211,2.47-4.01
			l-3.229-1.023C224.584,250.948,224.127,251.833,223.489,252.396z"/>
		<rect x="230.845" y="239.314" fill="#FFFFFF" width="3.329" height="16.488"/>
		<path fill="#FFFFFF" d="M242.093,239.314l-6.423,16.488h3.532l1.361-3.745h6.592l1.439,3.745h3.622l-6.603-16.488H242.093z
			 M241.587,249.28l2.227-6.119l2.272,6.119H241.587z"/>
		<polygon fill="#FFFFFF" points="257.401,239.449 254.072,239.449 254.072,255.803 265.68,255.803 265.68,253.024 257.401,253.024 
					"/>
	</g>
</g>
</svg>
