<?xml version="1.0" encoding="utf-8"?>
<!-- Generator: Adobe Illustrator 16.0.0, SVG Export Plug-In . SVG Version: 6.00 Build 0)  -->
<!DOCTYPE svg PUBLIC "-//W3C//DTD SVG 1.0//EN" "http://www.w3.org/TR/2001/REC-SVG-20010904/DTD/svg10.dtd">
<svg version="1.0" id="Capa_1" xmlns="http://www.w3.org/2000/svg" xmlns:xlink="http://www.w3.org/1999/xlink" x="0px" y="0px"
	 width="300px" height="300px" viewBox="0 0 300 300" enable-background="new 0 0 300 300" xml:space="preserve">
<g>
	<path fill="#21A5FA" d="M242.623,0.001H57.378C25.82,0.001,0,25.82,0,57.377v185.245c0,31.558,25.82,57.377,57.378,57.377h185.245
		c31.558,0,57.377-25.819,57.377-57.377V57.377C300,25.82,274.181,0.001,242.623,0.001z"/>
	<path fill="#21A5FA" d="M126.281,204.323c0.033-12.812,0.011-25.627,0.011-38.442c0-12.911-0.002-25.821,0.005-38.731
		c-0.007,12.91-0.005,25.82-0.005,38.731C126.292,178.696,126.314,191.511,126.281,204.323"/>
	<g>
		<path fill="#FEFEFE" d="M25.491,241.147c-0.69-0.727-1.519-1.233-2.486-1.519c-0.72-0.21-1.765-0.314-3.138-0.314h-6.085v16.489
			h6.265c1.23,0,2.212-0.117,2.947-0.349c0.982-0.315,1.762-0.755,2.34-1.315c0.765-0.744,1.353-1.714,1.766-2.914
			c0.338-0.982,0.506-2.152,0.506-3.509c0-1.545-0.18-2.845-0.54-3.897C26.706,242.766,26.181,241.874,25.491,241.147z
			 M23.826,250.591c-0.225,0.737-0.516,1.268-0.871,1.591c-0.356,0.322-0.805,0.552-1.345,0.687
			c-0.412,0.104-1.083,0.158-2.013,0.158h-2.486v-10.922h1.496c1.357,0,2.269,0.052,2.733,0.156
			c0.622,0.136,1.136,0.395,1.541,0.776c0.404,0.382,0.72,0.915,0.944,1.597c0.226,0.683,0.338,1.662,0.338,2.936
			C24.164,248.845,24.052,249.852,23.826,250.591z"/>
		<polygon fill="#FEFEFE" points="33.758,248.538 42.036,248.538 42.036,245.759 33.758,245.759 33.758,242.104 42.655,242.104 
			42.655,239.313 30.429,239.313 30.429,255.804 42.97,255.804 42.97,253.024 33.758,253.024 		"/>
		<path fill="#FEFEFE" d="M56.721,249.909c-0.469-0.502-1.063-0.963-1.783-1.384c1.447-0.209,2.534-0.718,3.262-1.523
			s1.091-1.827,1.091-3.064c0-0.976-0.24-1.841-0.72-2.599c-0.48-0.757-1.119-1.284-1.918-1.58
			c-0.798-0.297-2.079-0.445-3.841-0.445h-7.007v16.49h3.329v-6.884h0.675c0.765,0,1.323,0.062,1.676,0.185
			c0.353,0.125,0.687,0.354,1.001,0.688c0.314,0.333,0.9,1.141,1.755,2.424l2.407,3.588h3.981l-2.014-3.217
			C57.82,251.304,57.188,250.412,56.721,249.909z M51.597,246.288h-2.463v-4.184h2.599c1.349,0,2.159,0.018,2.429,0.055
			c0.54,0.091,0.958,0.307,1.254,0.647c0.297,0.341,0.444,0.79,0.444,1.345c0,0.494-0.112,0.906-0.337,1.236
			c-0.225,0.331-0.536,0.562-0.934,0.697S53.194,246.288,51.597,246.288z"/>
		<polygon fill="#FEFEFE" points="65.758,248.538 74.036,248.538 74.036,245.759 65.758,245.759 65.758,242.104 74.654,242.104 
			74.654,239.313 62.429,239.313 62.429,255.804 74.97,255.804 74.97,253.024 65.758,253.024 		"/>
		<path fill="#FEFEFE" d="M86.971,252.396c-0.638,0.562-1.398,0.844-2.283,0.844c-1.2,0-2.175-0.443-2.924-1.327
			c-0.75-0.885-1.125-2.37-1.125-4.454c0-1.965,0.38-3.387,1.142-4.264c0.761-0.877,1.753-1.316,2.975-1.316
			c0.885,0,1.637,0.248,2.255,0.742c0.619,0.496,1.025,1.17,1.222,2.025l3.295-0.787c-0.376-1.32-0.938-2.332-1.688-3.037
			c-1.259-1.192-2.897-1.789-4.915-1.789c-2.31,0-4.173,0.76-5.59,2.279c-1.417,1.518-2.126,3.648-2.126,6.393
			c0,2.596,0.704,4.641,2.114,6.137s3.21,2.244,5.399,2.244c1.769,0,3.229-0.437,4.381-1.311c1.15-0.875,1.974-2.211,2.469-4.01
			l-3.229-1.023C88.066,250.948,87.608,251.833,86.971,252.396z"/>
		<polygon fill="#FEFEFE" points="104.292,245.805 97.769,245.805 97.769,239.313 94.439,239.313 94.439,255.804 97.769,255.804 
			97.769,248.593 104.292,248.593 104.292,255.804 107.622,255.804 107.622,239.313 104.292,239.313 		"/>
		<path fill="#FEFEFE" d="M118.362,239.032c-1.341,0-2.526,0.218-3.554,0.652c-0.772,0.323-1.483,0.817-2.131,1.486
			c-0.649,0.667-1.16,1.42-1.535,2.26c-0.503,1.141-0.754,2.549-0.754,4.229c0,2.625,0.723,4.686,2.171,6.182
			c1.447,1.496,3.396,2.244,5.849,2.244c2.422,0,4.356-0.752,5.804-2.256c1.447-1.502,2.171-3.586,2.171-6.248
			c0-2.684-0.729-4.779-2.188-6.287C122.736,239.786,120.793,239.032,118.362,239.032z M121.664,251.805
			c-0.851,0.956-1.939,1.435-3.268,1.435c-1.327,0-2.422-0.482-3.284-1.445c-0.862-0.964-1.293-2.379-1.293-4.246
			c0-1.896,0.42-3.316,1.26-4.258c0.839-0.94,1.945-1.412,3.317-1.412c1.373,0,2.473,0.466,3.302,1.395
			c0.828,0.932,1.242,2.34,1.242,4.23C122.94,249.415,122.516,250.849,121.664,251.805z"/>
		<path fill="#FEFEFE" d="M139.064,246.698c-0.775-0.409-1.975-0.805-3.594-1.188c-1.62-0.382-2.639-0.749-3.059-1.102
			c-0.331-0.276-0.495-0.611-0.495-1c0-0.429,0.176-0.77,0.528-1.024c0.548-0.397,1.305-0.597,2.272-0.597
			c0.938,0,1.64,0.186,2.108,0.558c0.468,0.37,0.774,0.979,0.916,1.827l3.33-0.146c-0.053-1.514-0.602-2.726-1.647-3.632
			c-1.047-0.908-2.604-1.362-4.674-1.362c-1.267,0-2.349,0.191-3.245,0.574s-1.582,0.939-2.058,1.67
			c-0.478,0.732-0.715,1.518-0.715,2.356c0,1.306,0.506,2.411,1.519,3.318c0.72,0.646,1.972,1.188,3.756,1.631
			c1.388,0.346,2.276,0.585,2.667,0.72c0.569,0.203,0.969,0.441,1.197,0.715c0.229,0.273,0.343,0.605,0.343,0.995
			c0,0.607-0.271,1.139-0.815,1.591c-0.543,0.455-1.352,0.682-2.424,0.682c-1.012,0-1.816-0.255-2.412-0.765
			c-0.596-0.511-0.992-1.31-1.187-2.396l-3.239,0.314c0.217,1.844,0.884,3.248,2.002,4.211c1.117,0.964,2.718,1.446,4.803,1.446
			c1.432,0,2.628-0.201,3.588-0.603c0.959-0.4,1.702-1.014,2.227-1.838c0.525-0.825,0.788-1.711,0.788-2.654
			c0-1.042-0.22-1.918-0.658-2.627C140.448,247.666,139.841,247.106,139.064,246.698z"/>
		<path fill="#FEFEFE" d="M160.829,246.698c-0.776-0.409-1.974-0.805-3.594-1.188c-1.62-0.382-2.64-0.749-3.06-1.102
			c-0.33-0.276-0.494-0.611-0.494-1c0-0.429,0.175-0.77,0.528-1.024c0.547-0.397,1.305-0.597,2.271-0.597
			c0.938,0,1.641,0.186,2.109,0.558c0.468,0.37,0.773,0.979,0.916,1.827l3.33-0.146c-0.053-1.514-0.603-2.726-1.648-3.632
			c-1.046-0.908-2.604-1.362-4.673-1.362c-1.268,0-2.349,0.191-3.245,0.574s-1.582,0.939-2.059,1.67
			c-0.476,0.732-0.714,1.518-0.714,2.356c0,1.306,0.506,2.411,1.519,3.318c0.72,0.646,1.972,1.188,3.757,1.631
			c1.387,0.346,2.275,0.585,2.665,0.72c0.57,0.203,0.97,0.441,1.197,0.715c0.229,0.273,0.344,0.605,0.344,0.995
			c0,0.607-0.271,1.139-0.815,1.591c-0.543,0.455-1.352,0.682-2.424,0.682c-1.013,0-1.816-0.255-2.412-0.765
			c-0.597-0.511-0.992-1.31-1.187-2.396l-3.24,0.314c0.217,1.844,0.885,3.248,2.003,4.211c1.116,0.964,2.718,1.446,4.803,1.446
			c1.432,0,2.628-0.201,3.588-0.603c0.959-0.4,1.702-1.014,2.227-1.838c0.524-0.825,0.787-1.711,0.787-2.654
			c0-1.042-0.219-1.918-0.658-2.627C162.213,247.666,161.604,247.106,160.829,246.698z"/>
		<rect x="166.009" y="239.313" fill="#FEFEFE" width="3.329" height="16.49"/>
		<polygon fill="#FEFEFE" points="182.532,250.325 175.783,239.313 172.543,239.313 172.543,255.804 175.637,255.804 
			175.637,245.05 182.284,255.804 185.624,255.804 185.624,239.313 182.532,239.313 		"/>
		<path fill="#FEFEFE" d="M200.842,241.147c-0.689-0.727-1.518-1.233-2.485-1.519c-0.72-0.21-1.766-0.314-3.138-0.314h-6.085v16.489
			h6.265c1.23,0,2.212-0.117,2.947-0.349c0.981-0.315,1.762-0.755,2.339-1.315c0.766-0.744,1.354-1.714,1.766-2.914
			c0.338-0.982,0.507-2.152,0.507-3.509c0-1.545-0.18-2.845-0.54-3.897C202.057,242.766,201.532,241.874,200.842,241.147z
			 M199.178,250.591c-0.225,0.737-0.516,1.268-0.872,1.591c-0.355,0.322-0.804,0.552-1.344,0.687
			c-0.412,0.104-1.084,0.158-2.013,0.158h-2.486v-10.922h1.496c1.356,0,2.268,0.052,2.732,0.156
			c0.623,0.136,1.137,0.395,1.542,0.776c0.404,0.382,0.72,0.915,0.944,1.597c0.225,0.683,0.337,1.662,0.337,2.936
			C199.515,248.845,199.402,249.852,199.178,250.591z"/>
		<rect x="205.679" y="239.313" fill="#FEFEFE" width="3.329" height="16.49"/>
		<path fill="#FEFEFE" d="M221.358,252.396c-0.638,0.562-1.398,0.844-2.283,0.844c-1.201,0-2.175-0.443-2.925-1.327
			c-0.75-0.885-1.125-2.37-1.125-4.454c0-1.965,0.381-3.387,1.142-4.264c0.762-0.877,1.753-1.316,2.976-1.316
			c0.885,0,1.637,0.248,2.255,0.742c0.619,0.496,1.025,1.17,1.221,2.025l3.295-0.787c-0.375-1.32-0.938-2.332-1.687-3.037
			c-1.26-1.192-2.898-1.789-4.915-1.789c-2.311,0-4.174,0.76-5.591,2.279c-1.417,1.518-2.125,3.648-2.125,6.393
			c0,2.596,0.704,4.641,2.114,6.137c1.409,1.496,3.209,2.244,5.398,2.244c1.771,0,3.23-0.437,4.381-1.311
			c1.151-0.875,1.975-2.211,2.47-4.01l-3.229-1.023C222.453,250.948,221.995,251.833,221.358,252.396z"/>
		<path fill="#FEFEFE" d="M233.562,239.314l-6.423,16.489h3.531l1.361-3.746h6.591l1.44,3.746h3.621l-6.603-16.489H233.562z
			 M233.056,249.28l2.228-6.119l2.271,6.119H233.056z"/>
		<polygon fill="#FEFEFE" points="248.87,239.449 245.541,239.449 245.541,255.804 257.148,255.804 257.148,253.024 248.87,253.024 
					"/>
		<polygon fill="#FEFEFE" points="262.851,248.538 271.129,248.538 271.129,245.759 262.851,245.759 262.851,242.104 
			271.748,242.104 271.748,239.313 259.521,239.313 259.521,255.804 272.062,255.804 272.062,253.024 262.851,253.024 		"/>
		<path fill="#FEFEFE" d="M286.792,248.374c-0.439-0.708-1.046-1.268-1.822-1.676c-0.776-0.409-1.975-0.805-3.594-1.188
			c-1.62-0.382-2.64-0.749-3.06-1.102c-0.33-0.276-0.495-0.611-0.495-1c0-0.429,0.177-0.77,0.528-1.024
			c0.548-0.397,1.306-0.597,2.272-0.597c0.938,0,1.641,0.186,2.109,0.558c0.469,0.37,0.773,0.979,0.917,1.827l3.329-0.146
			c-0.053-1.514-0.603-2.726-1.648-3.632c-1.046-0.908-2.604-1.362-4.673-1.362c-1.268,0-2.35,0.191-3.245,0.574
			s-1.582,0.939-2.059,1.67c-0.476,0.732-0.714,1.518-0.714,2.356c0,1.306,0.506,2.411,1.519,3.318
			c0.72,0.646,1.972,1.188,3.757,1.631c1.387,0.346,2.275,0.585,2.666,0.72c0.568,0.203,0.968,0.441,1.197,0.715
			c0.229,0.273,0.343,0.605,0.343,0.995c0,0.607-0.271,1.139-0.815,1.591c-0.544,0.455-1.352,0.682-2.424,0.682
			c-1.012,0-1.816-0.255-2.412-0.765c-0.597-0.511-0.992-1.31-1.188-2.396l-3.238,0.314c0.217,1.844,0.884,3.248,2.002,4.211
			c1.117,0.964,2.718,1.446,4.803,1.446c1.432,0,2.628-0.201,3.588-0.603c0.959-0.4,1.701-1.014,2.227-1.838
			c0.525-0.825,0.787-1.711,0.787-2.654C287.449,249.959,287.23,249.083,286.792,248.374z"/>
		<g>
			<path fill="#FEFEFE" d="M210.968,166.048c-1.637-5.182-2.707-10.514-4.143-15.752c-2.016-7.354-3.393-14.881-5.067-22.328
				c-0.327-1.457-0.737-2.952,1.218-3.502c1.946-0.549,1.789,1.395,2.091,2.262c1.817,5.238,3.358,10.571,5.145,15.82
				c1.27,3.73,1.358,8.09,4.075,11.045c2.406,2.619,3.641,4.633,0.789,7.51c-0.272,0.275-0.097,0.945-0.281,1.364
				c-1.236,2.813,0.682,5.688-0.087,8.421c-1.351,4.801,0.069,9.57-0.095,14.354c-0.081,2.347,1.94,3.737,4.361,3.443
				c2.47-0.299,3.899-1.923,3.917-4.479c0.041-6.358-0.052-12.72,0.052-19.077c0.032-1.989-0.193-3.809-1.543-5.291
				c-1.153-1.268-1.17-2.757-0.491-4c1.462-2.678,1.728-5.377,0.814-8.209c-0.461-1.431-1.238-2.762-1.67-4.198
				c-2.573-8.562-5.144-17.124-8.275-25.499c-1.809-4.836-7.838-8.609-12.904-8.417c-6.367,0.241-12.739,0.333-19.104,0.611
				c-3.659,0.159-6.863,1.233-9.786,3.842c-2.604,2.323-3.219,5.351-4.2,8.198c-3.091,8.971-5.896,18.041-8.66,27.119
				c-0.618,2.029-0.424,4.302,1.428,5.766c1.427,1.127,3.289,1.174,4.875,0.312c2.059-1.121,2.629-3.45,3.287-5.41
				c2.69-8.02,5.125-16.125,7.651-24.2c0.374-1.196,1.496-1.673,2.417-1.599c0.719,0.06,1.895,0.797,1.347,2.059
				c-1.22,2.81-1.225,5.9-2.109,8.779c-1.494,4.857-2.766,9.829-3.771,14.746c-1.458,7.121-3.559,14.072-4.992,21.189
				c-0.329,1.63-0.162,2.164,1.38,2.186c1.053,0.016,2.121,0.008,3.157-0.152c2.706-0.42,3.68,0.298,3.69,2.961
				c0.021,5.395,0.006,10.791,0.007,16.187c0,4.19-0.022,8.382-0.011,12.573c0.005,1.396,0.012,2.794,0.026,4.191
				c0.03,3.018,2.497,5.32,5.745,5.544c2.206,0.152,5.594-2.175,5.765-4.157c0.295-3.415,0.506-6.935,0.303-10.266
				c-0.494-8.115,0.117-16.213-0.266-24.307c-0.076-1.613,0.892-2.226,2.266-2.221c1.201,0.005,2.332-0.211,2.504,1.91
				c0.184,2.268,0.433,4.535,0.434,6.819c0.007,8.864-0.003,17.729,0.007,26.593c0.004,3.236,2.913,6.045,6.147,5.973
				c2.601-0.058,5.408-3.124,5.41-5.947c0.008-10.984,0.034-21.969-0.025-32.951c-0.011-1.911,0.473-2.762,2.583-2.779
				c5.611-0.046,5.615-0.137,4.949-5.668C211.269,166.952,211.109,166.497,210.968,166.048z"/>
			<path fill="#FEFEFE" d="M141.464,133.561c-1.546-4.722-3.028-9.47-4.79-14.111c-1.443-3.804-5.136-8.255-10.568-8.956
				c-3.9-0.503-7.578,0.271-11.359,0.242c-5.219-0.043-10.44-0.538-15.658-0.053c-3.148,0.293-5.928,1.074-8.44,3.416
				c-2.537,2.361-3.656,5.326-4.679,8.273c-3.073,8.857-5.817,17.832-8.632,26.778c-0.75,2.386,0.003,4.494,2.185,5.649
				c1.506,0.797,3.441,1.061,4.679-0.628c0.876-1.196,1.817-2.382,2.266-3.903c1.702-5.779,3.466-11.541,5.309-17.277
				c0.805-2.506,1.837-4.939,2.8-7.394c0.381-0.972,1.215-1.148,2.146-1.004c0.761,0.118,1.467,0.708,1.197,1.327
				c-0.912,2.1,0.147,4.089,0.141,6.127c-0.087,24.569-0.034,49.138-0.089,73.707c-0.005,2.447,0.683,4.475,2.912,5.389
				c1.243,0.51,2.852,0.164,4.296,0.143c3.127-0.046,4.323-1.221,4.384-4.313c0.054-2.812,0.239-5.599,0.112-8.444
				c-0.55-12.293,0.899-24.578,0.476-36.885c-0.014-0.385-0.036-0.781,0.042-1.153c0.226-1.069,1.031-1.242,1.973-1.243
				c0.94-0.002,1.792,0.162,1.972,1.234c0.125,0.752,0.057,1.537,0.057,2.309c0.002,14.162,0.008,28.325-0.004,42.488
				c-0.002,2.631,0.473,4.961,3.346,5.95c5.337,1.839,9.355-0.946,9.37-6.904c0.032-12.814,0.01-25.628,0.011-38.443
				c0-12.911-0.003-25.821,0.005-38.731c0-0.84-0.284-2.002,0.72-2.264c0.726-0.189,1.758,0.273,2.051,1.215
				c1.227,3.949,2.308,7.944,3.604,11.869c1.62,4.902,3.342,9.775,5.137,14.616c0.812,2.187,2.645,3.049,4.855,2.476
				c2.154-0.559,3.851-3.523,3.213-5.656C144.913,144.097,143.188,138.827,141.464,133.561z"/>
			<path fill="#FEFEFE" d="M155.926,63.503c2.118-2.227-0.262-3.642-0.881-5.146c-1.892-4.593,0.605-10.922,5.395-11.711
				c3.34-0.551,3.702-2.277,3.497-4.939c-0.204-2.674-2.06-3.196-4.172-3.281c-1.57-0.062-3.177-0.592-3.623-1.887
				c-1.255-3.644-3.368-7.36-0.411-11.256c0.647-0.854,1.15-1.999,0.261-3.172c-2.267-2.99-3.921-3.443-7.255-1.195
				c-3.355,2.263-12.087-1.18-11.985-6.105c0.033-1.623,0.125-3.24-2.272-3.012c-2.369,0.227-5.76-1.09-6.043,2.803
				c-0.258,3.535-2.024,5.369-5.055,6.384c-0.669,0.224-1.225,0.465-1.696,0.963c-1.028,1.089-1.99,1.025-3.287,0.218
				c-1.48-0.924-2.836-2.257-5.172-2.342c-1.625,0.341-2.325,2.239-3.562,3.431c-0.805,0.776-0.941,1.887,0.13,3.013
				c2.073,2.178,3.218,4.64,0.953,7.468c-0.284,0.354-0.603,0.891-0.539,1.283c0.59,3.664-2.206,4.087-4.56,4.466
				c-3.204,0.516-3.786,2.27-3.675,5.162c0.114,2.955,2.215,2.684,3.957,2.97c2.093,0.344,4.029,0.915,4.574,3.173
				c0.296,1.228,0.71,2.35,1.381,3.346c1.267,1.875,1.133,3.607-0.108,5.412c-0.479,0.697-0.713,1.559-1.165,2.278
				c-1.392,2.216,0.929,2.758,1.771,3.923c0.935,1.293,2.517,1.539,3.53,0.567c2.619-2.509,5.006-2.786,8.346-1.066
				c2.506,1.29,5.638,1.282,5.191,5.326c-0.069,0.634,0.606,1.36,0.967,2.028c0.994,1.846,2.739,0.842,4.153,1.047
				c1.014,0.146,1.915-0.082,2.165-1.332c0.797-3.987,2.349-7.299,7.051-7.746c0.152-0.016,0.267-0.277,0.428-0.375
				c1.648-0.998,3.059-1.29,4.948,0.013C152.968,66.831,153.001,66.579,155.926,63.503z M132.619,59.694
				c-8.722-0.396-15.643-5.932-15.535-16.467c-0.264-10.708,7.704-15.888,15.842-16.244c8.9-0.388,16.736,7.01,16.651,16.67
				C149.5,52.558,141.759,60.11,132.619,59.694z"/>
			<path fill="#FEFEFE" d="M163.169,51.728c-1.291,0.04-3.062-0.779-3.62,1.25c-0.483,1.752-0.573,3.271,1.273,4.707
				c3,2.333,2.861,4.682,0.221,7.344c-0.956,0.963-1.791,2.033-1.144,3.652c0.674,1.688,1.759,2.164,3.528,2.141
				c5.127-0.066,5.22,0.028,5.671,5.1c0.179,2.014,1.592,2.598,3.033,3.316c1.332,0.663,1.957-0.375,2.632-1.117
				c3.333-3.664,4.17-3.783,7.756-0.561c1.28,1.15,2.313,1.057,3.748,0.283c1.481-0.801,2.16-1.785,1.918-3.426
				c-0.528-3.556,0.91-5.369,4.342-5.357c1.593,0.008,2.956-0.025,3.79-1.813c0.921-1.974,0.108-3.104-1.253-4.403
				c-3.291-3.141-3.243-4.052-0.073-7.234c0.204-0.205,0.382-0.447,0.616-0.607c1.646-1.123,1.167-2.309,0.157-3.557
				c-0.909-1.121-1.993-1.541-3.489-1.523c-4.404,0.051-5.305-0.932-5.524-5.324c0.007-1.316-0.571-2.089-1.749-2.665
				c-2.444-1.196-3.87,0.077-5.265,1.788c-1.709,2.098-3.93,2.218-5.756,0.297c-0.374-0.393-0.798-0.783-1.104-1.17
				c-1.604-2.028-2.956-0.26-4.231,0.285c-1.249,0.534-1.412,1.818-1.095,3.158C168.368,49.737,166.777,51.612,163.169,51.728z
				 M177.723,53.432c4.285-0.758,7.254,3.421,7.536,6.896c0.274,3.371-3.861,7.627-7.153,7.537
				c-4.301-0.119-7.351-3.309-7.267-7.453C170.927,56.138,173.502,53.437,177.723,53.432z"/>
			<path fill="#FEFEFE" d="M98.624,95.596c1.374,0.273,1.663,0.963,1.708,2.172c0.122,3.353,1.456,6.101,4.185,8.154
				c3.173,2.388,6.666,3.429,10.27,1.47c3.368-1.83,6.123-4.451,6.33-8.71c0.067-1.39,0.337-2.458,1.644-3.347
				c1.584-1.076,2.165-2.551-0.032-3.769c-0.77-0.426-1.173-1.056-0.998-1.879c0.685-3.216-1.876-4.978-3.208-7.284
				c-0.395-0.686-1.117-0.676-1.801-0.604c-1.039,0.108-0.749,0.945-0.78,1.554c-0.069,1.344,0.213,2.82-1.751,3.679
				c0-2.093,0.097-3.917-0.022-5.728c-0.191-2.904-2.48-2.66-4.303-2.377c-5.548,0.861-2.018,5.543-3.762,8.638
				c-0.647-1.835-1.237-3.374-1.729-4.944c-0.309-0.99-0.728-1.813-1.619-0.621c-1.403,1.874-3.048,3.611-3.621,6.028
				c-0.349,1.47-0.503,2.914-1.81,4.2C96.17,93.364,96.635,95.2,98.624,95.596z"/>
			<path fill="#FEFEFE" d="M178.406,96.564c0.128,5.374,5.889,10.651,11.62,10.645c5.685-0.007,10.323-4.779,10.325-10.626
				c0.768-5.123-4.948-10.891-10.787-10.779C183.652,85.915,178.275,91.053,178.406,96.564z"/>
			<path fill="#FEFEFE" d="M132.915,33.806c-4.891-0.404-8.535,3.624-8.952,8.977c-0.492,6.332,4.341,9.348,8.299,9.492
				c6.258,0.031,10.036-3.34,10.136-8.768C142.494,38.223,139.725,34.369,132.915,33.806z M132.876,46.997
				c-2.161-0.367-3.106-1.865-3.519-3.695c-0.299-1.325,1.952-3.836,3.313-3.707c1.925,0.182,3.491,1.19,3.996,3.104
				C137.038,44.104,134.289,46.937,132.876,46.997z"/>
		</g>
	</g>
</g>
</svg>
