<?xml version="1.0" encoding="utf-8"?>
<!-- Generator: Adobe Illustrator 16.0.0, SVG Export Plug-In . SVG Version: 6.00 Build 0)  -->
<!DOCTYPE svg PUBLIC "-//W3C//DTD SVG 1.0//EN" "http://www.w3.org/TR/2001/REC-SVG-20010904/DTD/svg10.dtd">
<svg version="1.0" id="Capa_1" xmlns="http://www.w3.org/2000/svg" xmlns:xlink="http://www.w3.org/1999/xlink" x="0px" y="0px"
	 width="300px" height="300px" viewBox="0 0 300 300" enable-background="new 0 0 300 300" xml:space="preserve">
<g>
	<path fill="#04D67F" d="M242.623,300H57.378C25.82,300,0,274.18,0,242.622V57.377C0,25.82,25.82,0,57.378,0h185.245
		C274.181,0,300,25.82,300,57.377v185.245C300,274.18,274.181,300,242.623,300"/>
	<g>
		<polygon fill="#FEFEFE" points="95.039,242.104 99.932,242.104 99.932,255.803 103.261,255.803 103.261,242.104 108.143,242.104 
			108.143,239.314 95.039,239.314 		"/>
		<path fill="#FEFEFE" d="M121.218,249.909c-0.469-0.502-1.063-0.964-1.783-1.384c1.448-0.209,2.535-0.717,3.262-1.523
			c0.728-0.806,1.091-1.828,1.091-3.064c0-0.975-0.239-1.842-0.72-2.6c-0.479-0.757-1.118-1.283-1.917-1.579
			c-0.798-0.297-2.08-0.444-3.842-0.444h-7.007v16.488h3.329v-6.883h0.676c0.764,0,1.323,0.061,1.675,0.185
			c0.353,0.125,0.687,0.353,1.001,0.688c0.315,0.333,0.9,1.141,1.756,2.424l2.406,3.587h3.981l-2.014-3.217
			C122.318,251.304,121.687,250.412,121.218,249.909z M116.095,246.288h-2.464v-4.184h2.599c1.35,0,2.159,0.018,2.429,0.055
			c0.541,0.091,0.959,0.307,1.255,0.647s0.444,0.789,0.444,1.344c0,0.495-0.112,0.907-0.338,1.237
			c-0.225,0.331-0.535,0.562-0.934,0.697C118.688,246.22,117.691,246.288,116.095,246.288z"/>
		<path fill="#FEFEFE" d="M131.673,239.314l-6.423,16.488h3.532l1.36-3.745h6.592l1.439,3.745h3.621l-6.602-16.488H131.673z
			 M131.166,249.28l2.228-6.119l2.271,6.119H131.166z"/>
		<path fill="#FEFEFE" d="M154.258,247.041c0.713-0.321,1.276-0.805,1.692-1.45s0.624-1.354,0.624-2.126
			c0-0.714-0.168-1.355-0.506-1.929c-0.338-0.574-0.76-1.034-1.266-1.378c-0.506-0.346-1.08-0.572-1.721-0.682
			c-0.641-0.108-1.614-0.162-2.919-0.162h-6.591v16.488h5.612c2.122-0.015,3.461-0.052,4.016-0.112
			c0.885-0.098,1.629-0.358,2.231-0.781c0.604-0.424,1.081-0.99,1.43-1.699c0.349-0.707,0.522-1.438,0.522-2.188
			c0-0.952-0.27-1.779-0.81-2.485C156.034,247.833,155.262,247.334,154.258,247.041z M146.902,242.058h1.911
			c1.567,0,2.516,0.02,2.846,0.058c0.555,0.066,0.974,0.26,1.254,0.578c0.281,0.32,0.423,0.733,0.423,1.243
			c0,0.533-0.164,0.962-0.49,1.288c-0.326,0.325-0.773,0.523-1.344,0.59c-0.315,0.038-1.121,0.058-2.418,0.058h-2.182V242.058z
			 M153.476,252.267c-0.311,0.348-0.714,0.567-1.209,0.657c-0.322,0.066-1.083,0.102-2.283,0.102h-3.081v-4.409h2.688
			c1.515,0,2.499,0.079,2.952,0.235c0.454,0.158,0.801,0.409,1.04,0.755c0.24,0.345,0.361,0.764,0.361,1.26
			C153.943,251.45,153.787,251.917,153.476,252.267z"/>
		<path fill="#FEFEFE" d="M164.943,239.314l-6.423,16.488h3.532l1.36-3.745h6.591l1.44,3.745h3.621l-6.602-16.488H164.943z
			 M164.437,249.28l2.228-6.119l2.271,6.119H164.437z"/>
		<path fill="#FEFEFE" d="M182.781,249.966c0,1.335-0.153,2.214-0.461,2.638c-0.308,0.423-0.832,0.635-1.575,0.635
			c-0.734,0-1.281-0.296-1.642-0.888c-0.239-0.391-0.379-1.058-0.416-2.003l-3.139,0.36c0.008,1.762,0.45,3.1,1.327,4.01
			c0.878,0.911,2.13,1.366,3.757,1.366c1.388,0,2.505-0.29,3.353-0.872c0.847-0.58,1.432-1.352,1.755-2.311
			c0.239-0.734,0.359-1.785,0.359-3.149v-10.438h-3.318V249.966z"/>
		<path fill="#FEFEFE" d="M196.942,239.033c-1.342,0-2.527,0.217-3.554,0.651c-0.772,0.323-1.483,0.817-2.132,1.485
			s-1.16,1.421-1.535,2.262c-0.503,1.14-0.754,2.548-0.754,4.228c0,2.625,0.724,4.686,2.171,6.182s3.396,2.243,5.849,2.243
			c2.422,0,4.356-0.751,5.804-2.255c1.447-1.503,2.172-3.587,2.172-6.248c0-2.684-0.73-4.78-2.188-6.287
			C201.316,239.786,199.372,239.033,196.942,239.033z M200.244,251.805c-0.852,0.956-1.94,1.435-3.268,1.435
			s-2.422-0.482-3.285-1.446c-0.862-0.963-1.293-2.379-1.293-4.246c0-1.896,0.42-3.315,1.26-4.257
			c0.84-0.94,1.946-1.412,3.318-1.412s2.473,0.466,3.301,1.396c0.829,0.931,1.242,2.339,1.242,4.229
			C201.52,249.414,201.095,250.849,200.244,251.805z"/>
		<path fill="#FEFEFE" d="M222.943,165.128c0.031-1.99-0.194-3.809-1.544-5.291c-1.152-1.268-1.17-2.757-0.491-4
			c1.463-2.679,1.728-5.377,0.814-8.209c-0.461-1.431-1.237-2.761-1.67-4.198c-2.573-8.562-5.144-17.123-8.275-25.499
			c-1.809-4.836-7.838-8.609-12.903-8.417c-6.368,0.24-12.74,0.333-19.105,0.611c-3.659,0.16-6.863,1.233-9.786,3.842
			c-2.604,2.322-3.219,5.351-4.2,8.198c-3.091,8.97-5.896,18.041-8.66,27.119c-0.618,2.03-0.423,4.302,1.428,5.766
			c1.427,1.127,3.29,1.175,4.876,0.312c2.059-1.12,2.629-3.449,3.286-5.409c2.69-8.02,5.126-16.126,7.651-24.2
			c0.374-1.195,1.496-1.673,2.417-1.598c0.719,0.059,1.895,0.797,1.347,2.057c-1.22,2.811-1.225,5.902-2.109,8.78
			c-1.494,4.857-2.766,9.829-3.771,14.746c-1.458,7.12-3.559,14.073-4.992,21.189c-0.329,1.63-0.162,2.165,1.38,2.187
			c1.053,0.015,2.121,0.007,3.157-0.154c2.706-0.419,3.68,0.299,3.69,2.961c0.022,5.396,0.006,10.792,0.007,16.188
			c0,4.19-0.022,8.382-0.01,12.573c0.004,1.396,0.012,2.794,0.026,4.191c0.029,3.018,2.497,5.32,5.744,5.544
			c2.206,0.152,5.595-2.176,5.765-4.157c0.295-3.415,0.506-6.936,0.303-10.265c-0.494-8.116,0.117-16.214-0.266-24.308
			c-0.076-1.613,0.892-2.226,2.266-2.221c1.201,0.005,2.332-0.212,2.504,1.91c0.184,2.268,0.433,4.536,0.435,6.819
			c0.007,8.865-0.004,17.729,0.006,26.593c0.004,3.235,2.913,6.045,6.148,5.974c2.6-0.06,5.408-3.125,5.409-5.948
			c0.008-10.984,0.035-21.969-0.025-32.952c-0.011-1.91,0.473-2.761,2.583-2.777c5.611-0.047,5.615-0.138,4.949-5.67
			c-0.056-0.463-0.216-0.917-0.357-1.366c-1.637-5.183-2.707-10.514-4.143-15.753c-2.016-7.353-3.393-14.88-5.066-22.327
			c-0.328-1.457-0.738-2.952,1.217-3.503c1.946-0.548,1.789,1.396,2.091,2.264c1.818,5.236,3.358,10.57,5.145,15.819
			c1.27,3.73,1.358,8.09,4.075,11.046c2.406,2.618,3.641,4.631,0.789,7.509c-0.272,0.275-0.097,0.945-0.28,1.364
			c-1.237,2.814,0.682,5.688-0.088,8.421c-1.351,4.801,0.07,9.569-0.095,14.354c-0.08,2.347,1.94,3.737,4.362,3.443
			c2.469-0.299,3.898-1.923,3.916-4.479C222.932,177.846,222.839,171.485,222.943,165.128z"/>
		<path fill="#FEFEFE" d="M146.5,149.405c-1.586-5.309-3.312-10.577-5.036-15.846c-1.545-4.721-3.028-9.47-4.79-14.11
			c-1.443-3.804-5.136-8.256-10.568-8.956c-3.9-0.503-7.579,0.271-11.359,0.242c-5.219-0.043-10.44-0.538-15.658-0.053
			c-3.147,0.292-5.927,1.075-8.44,3.415c-2.537,2.362-3.656,5.326-4.679,8.274c-3.073,8.857-5.817,17.831-8.632,26.778
			c-0.75,2.385,0.003,4.494,2.185,5.649c1.506,0.798,3.441,1.06,4.679-0.628c0.876-1.197,1.817-2.382,2.266-3.903
			c1.702-5.779,3.467-11.541,5.309-17.277c0.805-2.507,1.837-4.939,2.8-7.394c0.381-0.973,1.215-1.148,2.146-1.004
			c0.761,0.118,1.467,0.708,1.197,1.327c-0.912,2.1,0.147,4.089,0.141,6.128c-0.086,24.568-0.034,49.137-0.089,73.706
			c-0.005,2.447,0.683,4.474,2.913,5.389c1.243,0.51,2.852,0.165,4.295,0.143c3.127-0.046,4.323-1.222,4.384-4.314
			c0.055-2.811,0.239-5.598,0.112-8.443c-0.549-12.292,0.9-24.578,0.476-36.885c-0.014-0.385-0.036-0.781,0.042-1.153
			c0.226-1.069,1.031-1.242,1.973-1.243s1.793,0.161,1.972,1.234c0.126,0.751,0.057,1.537,0.057,2.308
			c0.001,14.163,0.008,28.326-0.004,42.49c-0.002,2.63,0.473,4.959,3.346,5.949c5.337,1.839,9.355-0.947,9.37-6.904
			c0.033-12.814,0.011-25.629,0.011-38.443c0-12.911-0.003-25.821,0.005-38.732c0-0.839-0.283-2.001,0.72-2.264
			c0.726-0.189,1.758,0.273,2.051,1.217c1.227,3.948,2.308,7.943,3.604,11.868c1.62,4.902,3.342,9.775,5.138,14.616
			c0.812,2.187,2.645,3.049,4.854,2.476C145.441,154.503,147.138,151.539,146.5,149.405z"/>
		<path fill="#FEFEFE" d="M105.93,47.615c2.094,0.344,4.03,0.915,4.575,3.173c0.296,1.228,0.71,2.35,1.382,3.345
			c1.266,1.876,1.133,3.608-0.109,5.413c-0.479,0.697-0.712,1.559-1.165,2.278c-1.392,2.216,0.93,2.758,1.771,3.923
			c0.936,1.293,2.518,1.539,3.532,0.567c2.618-2.509,5.005-2.787,8.346-1.066c2.505,1.29,5.637,1.282,5.19,5.326
			c-0.069,0.634,0.607,1.36,0.968,2.028c0.993,1.845,2.739,0.841,4.153,1.046c1.013,0.147,1.915-0.081,2.164-1.331
			c0.797-3.987,2.35-7.298,7.052-7.747c0.151-0.015,0.266-0.276,0.427-0.374c1.648-0.998,3.059-1.29,4.948,0.013
			c3.805,2.622,3.838,2.37,6.763-0.706c2.118-2.228-0.262-3.642-0.881-5.146c-1.891-4.593,0.605-10.922,5.395-11.711
			c3.34-0.551,3.702-2.278,3.498-4.94c-0.205-2.673-2.061-3.195-4.173-3.279c-1.569-0.063-3.177-0.594-3.622-1.887
			c-1.256-3.645-3.369-7.361-0.412-11.258c0.647-0.852,1.15-1.998,0.261-3.172c-2.267-2.989-3.921-3.443-7.255-1.194
			c-3.355,2.263-12.086-1.18-11.985-6.104c0.033-1.624,0.125-3.242-2.272-3.013c-2.369,0.228-5.76-1.091-6.043,2.802
			c-0.258,3.537-2.023,5.369-5.055,6.385c-0.669,0.225-1.225,0.465-1.696,0.963c-1.028,1.088-1.99,1.025-3.286,0.217
			c-1.481-0.923-2.837-2.256-5.173-2.342c-1.625,0.342-2.325,2.24-3.562,3.432c-0.804,0.776-0.941,1.887,0.13,3.013
			c2.073,2.178,3.219,4.64,0.952,7.468c-0.283,0.355-0.602,0.891-0.538,1.283c0.591,3.664-2.206,4.088-4.56,4.467
			c-3.204,0.515-3.786,2.268-3.674,5.162C102.089,47.6,104.188,47.329,105.93,47.615z M132.926,26.984
			c8.901-0.389,16.736,7.009,16.652,16.668c-0.078,8.905-7.819,16.458-16.958,16.042c-8.723-0.397-15.644-5.932-15.536-16.468
			C116.82,32.52,124.789,27.34,132.926,26.984z"/>
		<path fill="#FEFEFE" d="M163.169,51.727c-1.29,0.041-3.062-0.778-3.62,1.25c-0.483,1.753-0.572,3.272,1.274,4.708
			c3,2.333,2.86,4.682,0.22,7.344c-0.956,0.963-1.791,2.032-1.144,3.652c0.675,1.688,1.759,2.163,3.528,2.142
			c5.127-0.067,5.22,0.027,5.671,5.1c0.18,2.014,1.593,2.597,3.034,3.315c1.331,0.663,1.956-0.376,2.631-1.118
			c3.333-3.664,4.17-3.782,7.757-0.56c1.28,1.149,2.312,1.058,3.747,0.283c1.481-0.801,2.16-1.785,1.918-3.426
			c-0.527-3.556,0.91-5.369,4.342-5.356c1.593,0.006,2.956-0.027,3.791-1.814c0.92-1.974,0.107-3.104-1.254-4.404
			c-3.291-3.14-3.243-4.051-0.073-7.234c0.204-0.204,0.382-0.446,0.616-0.606c1.646-1.123,1.168-2.309,0.158-3.556
			c-0.91-1.122-1.994-1.542-3.49-1.524c-4.404,0.051-5.305-0.932-5.524-5.323c0.007-1.317-0.571-2.09-1.749-2.666
			c-2.444-1.196-3.869,0.078-5.265,1.789c-1.709,2.096-3.93,2.217-5.755,0.296c-0.374-0.394-0.799-0.783-1.105-1.171
			c-1.604-2.027-2.956-0.259-4.23,0.285c-1.25,0.535-1.413,1.819-1.096,3.159C168.369,49.737,166.777,51.612,163.169,51.727z
			 M177.723,53.432c4.285-0.758,7.254,3.421,7.537,6.896c0.273,3.371-3.862,7.627-7.154,7.536c-4.301-0.118-7.351-3.308-7.267-7.452
			C170.927,56.138,173.503,53.437,177.723,53.432z"/>
		<path fill="#FEFEFE" d="M98.624,95.596c1.374,0.273,1.663,0.963,1.708,2.172c0.123,3.353,1.456,6.101,4.186,8.154
			c3.172,2.388,6.665,3.429,10.27,1.47c3.368-1.83,6.122-4.451,6.33-8.71c0.066-1.391,0.336-2.458,1.643-3.347
			c1.584-1.077,2.166-2.551-0.032-3.769c-0.77-0.426-1.173-1.056-0.997-1.879c0.683-3.216-1.877-4.978-3.208-7.284
			c-0.396-0.686-1.118-0.676-1.802-0.604c-1.039,0.108-0.749,0.945-0.78,1.553c-0.069,1.345,0.213,2.821-1.751,3.68
			c0-2.093,0.097-3.917-0.022-5.728c-0.191-2.903-2.48-2.66-4.303-2.377c-5.548,0.861-2.018,5.543-3.761,8.638
			c-0.648-1.836-1.238-3.374-1.729-4.944c-0.31-0.99-0.728-1.813-1.62-0.621c-1.402,1.874-3.048,3.612-3.62,6.028
			c-0.349,1.47-0.504,2.914-1.81,4.2C96.17,93.364,96.635,95.2,98.624,95.596z"/>
		<path fill="#FEFEFE" d="M178.407,96.564c0.127,5.374,5.888,10.65,11.619,10.645c5.685-0.007,10.323-4.779,10.326-10.625
			c0.767-5.124-4.949-10.892-10.788-10.781C183.652,85.915,178.275,91.053,178.407,96.564z"/>
		<path fill="#FEFEFE" d="M132.262,52.274c6.258,0.031,10.036-3.34,10.136-8.768c0.097-5.284-2.673-9.138-9.482-9.7
			c-4.89-0.404-8.535,3.623-8.952,8.976C123.471,49.114,128.304,52.129,132.262,52.274z M132.671,39.594
			c1.925,0.182,3.491,1.191,3.996,3.104c0.371,1.407-2.378,4.239-3.79,4.3c-2.161-0.367-3.107-1.865-3.52-3.694
			C129.06,41.977,131.31,39.467,132.671,39.594z"/>
	</g>
</g>
</svg>
